<svg width="372" height="300" viewBox="0 0 372 300" fill="none" xmlns="http://www.w3.org/2000/svg">
<g filter="url(#filter0_dd_3_14089)">
<path d="M203.522 253.358C219.815 247.934 204.059 133.004 193.18 136.62C182.302 140.236 172.302 154.016 170.692 172.731C169.716 183.726 169.911 210.161 170.204 230L184.107 187C184.107 187 184.839 239.431 181.424 256.045C187.522 256.338 195.571 255.996 203.522 253.358Z" fill="#C0C3D6"/>
<path d="M181.083 256.241C181.18 256.338 181.278 256.387 181.375 256.387C182.692 256.436 184.009 256.485 185.327 256.485C191.912 256.485 198.059 255.556 203.62 253.7C217.133 249.204 209.669 174.784 200.303 146.442C197.766 138.722 195.376 135.35 193.034 136.132C181.131 140.09 171.765 155.042 170.253 172.585C169.277 183.579 169.472 209.819 169.765 229.903C169.765 230.098 169.912 230.293 170.107 230.293C170.351 230.342 170.497 230.196 170.546 230L183.619 189.443C183.717 200.193 183.863 241.532 180.936 255.801C180.985 256.045 180.985 256.143 181.083 256.241ZM184.497 186.951C184.497 186.755 184.351 186.56 184.156 186.56C183.961 186.511 183.766 186.658 183.717 186.853L170.594 227.459C170.302 207.767 170.204 183.237 171.131 172.78C172.643 155.58 181.766 140.92 193.327 137.06C195.034 136.523 197.327 140.041 199.571 146.833C204.108 160.613 208.303 186.071 209.669 208.793C211.279 234.642 208.937 251.159 203.425 253.015C196.986 255.165 189.766 256.045 181.961 255.654C185.18 238.649 184.497 187.488 184.497 186.951Z" fill="#C0C3D6"/>
<path d="M170.692 254.53C170.692 254.53 175.034 255.605 181.424 255.996C184.79 239.382 184.107 186.951 184.107 186.951L170.204 229.952C170.399 243.829 170.692 254.53 170.692 254.53Z" fill="#9FA3B5"/>
<path d="M184.156 186.56C183.961 186.511 183.766 186.658 183.717 186.853L169.814 229.854C169.814 229.903 169.814 229.952 169.814 230C170.009 243.731 170.302 254.482 170.302 254.579C170.302 254.775 170.448 254.921 170.595 254.97C170.643 254.97 175.034 256.094 181.424 256.436C181.619 256.436 181.814 256.289 181.814 256.094C185.18 239.627 184.497 187.488 184.497 186.951C184.497 186.755 184.351 186.56 184.156 186.56ZM181.083 255.557C175.961 255.263 172.156 254.481 171.082 254.237C171.034 252.331 170.79 242.412 170.595 230.049L183.668 189.541C183.766 200.242 183.912 240.995 181.083 255.557Z" fill="#9FA3B5"/>
<path d="M186.693 135.448C179.863 141.018 181.327 147.713 181.327 147.713C181.327 147.713 187.961 158.365 195.766 150.791C203.62 143.168 193.522 129.877 186.693 135.448Z" fill="#504566"/>
<path d="M186.449 135.106C179.473 140.774 180.888 147.468 180.936 147.761C180.936 147.81 180.985 147.859 180.985 147.908C181.132 148.104 184.351 153.283 189.132 153.869C189.425 153.918 189.717 153.918 190.01 153.918C192.108 153.918 194.156 152.99 196.108 151.084C200.596 146.735 199.474 140.432 196.156 136.718C193.717 133.933 189.766 132.418 186.449 135.106ZM195.522 150.449C193.522 152.404 191.376 153.283 189.229 152.99C185.132 152.501 182.107 148.055 181.717 147.517C181.571 146.784 180.693 140.871 186.937 135.741C190.01 133.2 193.473 134.959 195.473 137.207C198.596 140.676 199.62 146.491 195.522 150.449Z" fill="#504566"/>
<path d="M193.815 249.204C201.717 250.084 239.523 253.406 265.134 241.777C265.037 240.848 264.89 239.822 264.744 238.796C253.28 238.21 238.645 178.79 238.645 178.79C243.524 176.347 252.207 188.368 258.988 202.294L257.085 131.001C257.085 131.001 222.206 114.827 198.547 118.54C174.887 122.254 166.936 119.811 166.936 119.811C166.936 119.811 130.398 126.212 118.495 143.803C110.885 155.042 106.202 196.968 103.129 220.96C114.349 203.809 132.057 182.993 132.057 182.993C132.057 182.993 135.813 210.406 127.325 226.287C124.252 232.053 122.251 238.356 120.983 244.122C134.935 248.373 156.789 252.82 178.107 248.276C180.79 224.918 191.376 150.449 186.254 145.66C180.448 140.236 174.546 126.994 185.375 127.532C196.205 128.069 192.985 144.146 192.985 144.146C190.985 153.332 190.498 222.035 193.815 249.204Z" fill="#FCD375"/>
<path d="M193.375 249.253C193.375 249.448 193.571 249.595 193.766 249.644C196.79 249.986 204.986 250.768 215.376 250.768C230.401 250.768 250.06 249.155 265.28 242.216C265.427 242.119 265.524 241.972 265.524 241.777C265.427 240.848 265.28 239.822 265.134 238.796C265.085 238.6 264.939 238.454 264.744 238.454C261.622 238.307 256.109 232.981 247.767 208.549C243.182 195.062 239.718 181.478 239.133 179.181C239.767 178.986 240.45 178.986 241.231 179.279C245.67 180.794 252.304 189.736 258.597 202.636C258.695 202.832 258.89 202.929 259.085 202.881C259.28 202.832 259.426 202.636 259.426 202.441L257.524 131.148C257.524 131.001 257.426 130.854 257.28 130.757C256.938 130.61 222.011 114.583 198.498 118.247C175.277 121.912 167.131 119.567 167.082 119.567C167.033 119.567 166.936 119.518 166.887 119.567C166.497 119.616 130.008 126.163 118.154 143.706C111.129 154.065 106.543 190.469 103.519 214.559C103.226 216.807 102.982 218.957 102.69 221.009C102.641 221.205 102.787 221.4 102.982 221.449C103.177 221.498 103.373 221.449 103.47 221.302C113.373 206.154 128.495 187.977 131.764 184.117C132.3 189.101 134.398 212.311 126.934 226.189C124.203 231.271 122.056 237.281 120.544 244.122C120.495 244.318 120.641 244.562 120.837 244.611C135.325 249.009 157.033 253.309 178.155 248.764C178.351 248.715 178.448 248.569 178.497 248.422C178.985 244.366 179.668 238.796 180.497 232.346C185.765 190.469 190.595 149.227 186.546 145.416C182.302 141.458 178.546 134.031 180.107 130.317C180.79 128.655 182.546 127.874 185.326 127.971C187.668 128.069 189.473 128.949 190.741 130.561C194.302 135.106 192.546 143.999 192.546 144.097C190.449 153.821 190.205 222.964 193.375 249.253ZM191.327 130.024C189.912 128.216 187.863 127.19 185.278 127.092C181.375 126.896 179.814 128.558 179.229 129.926C177.375 134.275 181.863 142.191 185.863 145.954C189.961 149.765 183.18 203.369 179.57 232.15C178.79 238.454 178.107 243.927 177.619 247.934C156.935 252.283 135.715 248.129 121.373 243.829C122.885 237.232 124.983 231.369 127.568 226.482C136.057 210.65 132.398 183.188 132.349 182.944C132.349 182.797 132.203 182.651 132.056 182.602C131.91 182.553 131.715 182.602 131.617 182.748C131.422 182.944 114.739 202.539 103.617 219.25C103.812 217.735 104.007 216.221 104.202 214.608C107.226 190.616 111.763 154.309 118.69 144.097C130.056 127.287 164.692 120.691 166.789 120.3C167.814 120.593 176.155 122.499 198.498 118.98C220.742 115.511 253.475 129.926 256.548 131.294L258.402 200.437C253.475 190.616 246.645 180.159 241.426 178.399C240.304 178.009 239.279 178.057 238.401 178.497C238.206 178.595 238.157 178.79 238.157 178.986C238.206 179.132 241.865 194.036 246.938 208.793C253.573 228.29 259.426 238.552 264.305 239.285C264.402 240.066 264.5 240.848 264.597 241.63C239.377 252.918 202.205 249.79 194.156 248.911C190.839 220.814 191.522 152.941 193.278 144.341C193.375 143.852 195.083 134.861 191.327 130.024Z" fill="#FCD375"/>
<path d="M119.129 254.97C123.373 256.485 128.203 257.707 133.569 258.195C153.667 260.101 177.18 263.57 177.424 254.53C177.473 253.504 177.668 251.305 178.009 248.276C156.74 252.82 134.837 248.325 120.886 244.122C120.007 248.178 119.471 251.94 119.129 254.97Z" fill="#504566"/>
<path d="M121.032 243.731C120.934 243.682 120.788 243.731 120.69 243.78C120.593 243.829 120.495 243.927 120.495 244.073C119.715 247.592 119.129 251.256 118.69 254.97C118.69 255.165 118.788 255.361 118.983 255.41C123.764 257.12 128.642 258.195 133.52 258.684C135.715 258.879 137.959 259.123 140.252 259.368C148.106 260.15 156.106 260.98 162.692 260.98C168.887 260.98 173.814 260.247 176.204 258.146C177.278 257.218 177.814 256.045 177.863 254.628C177.912 253.651 178.058 251.696 178.448 248.422C178.448 248.276 178.4 248.178 178.302 248.08C178.205 247.982 178.058 247.934 177.912 247.982C156.984 252.331 135.423 248.08 121.032 243.731ZM176.985 254.53C176.936 255.703 176.497 256.631 175.619 257.413C170.936 261.518 155.375 259.954 140.301 258.439C138.057 258.195 135.813 258 133.569 257.755C128.886 257.316 124.203 256.289 119.569 254.677C119.959 251.256 120.495 247.885 121.227 244.66C135.569 248.96 156.789 253.113 177.522 248.813C177.18 251.794 177.034 253.602 176.985 254.53Z" fill="#504566"/>
<path d="M193.814 249.204C194.497 254.824 195.327 258.684 196.351 259.856C202.303 266.6 265.524 259.563 265.768 250.67C265.817 248.764 265.573 245.588 265.085 241.826C239.474 253.406 201.717 250.035 193.814 249.204Z" fill="#504566"/>
<path d="M265.28 241.386C265.183 241.337 265.036 241.337 264.89 241.386C239.279 253.016 201.181 249.546 193.815 248.764C193.668 248.764 193.571 248.813 193.473 248.862C193.376 248.96 193.327 249.058 193.376 249.204C194.107 255.361 194.985 258.879 196.01 260.101C197.766 262.104 204.059 262.935 212.205 262.935C226.986 262.935 247.865 260.15 258.744 256.192C263.622 254.433 266.158 252.527 266.207 250.621C266.256 248.862 266.012 245.832 265.524 241.679C265.475 241.581 265.427 241.484 265.28 241.386ZM265.329 250.621C265.28 252.136 262.841 253.846 258.402 255.41C240.743 261.762 200.888 264.45 196.595 259.514C196.01 258.83 195.083 256.534 194.205 249.644C202.693 250.523 239.475 253.553 264.695 242.363C265.183 246.223 265.378 248.96 265.329 250.621Z" fill="#504566"/>
<path d="M100.836 239.969C103.568 238.356 106.153 238.698 106.153 238.698C106.153 238.698 111.861 241.337 120.934 244.073C122.202 238.307 124.203 232.004 127.276 226.238C135.764 210.357 132.008 182.944 132.008 182.944C132.008 182.944 114.251 203.711 103.08 220.912C102.007 229.023 101.275 235.815 100.836 239.969Z" fill="#E8AE37"/>
<path d="M132.105 182.553C131.959 182.504 131.764 182.553 131.666 182.699C131.471 182.895 113.763 203.711 102.69 220.716C102.641 220.765 102.641 220.814 102.641 220.911C101.617 228.974 100.885 235.717 100.446 239.969C100.446 240.115 100.495 240.262 100.641 240.36C100.787 240.457 100.934 240.457 101.08 240.36C103.421 238.991 105.665 239.138 106.056 239.138C106.739 239.431 112.349 241.972 120.788 244.513C120.837 244.513 120.885 244.513 120.885 244.513C120.983 244.513 121.032 244.513 121.081 244.464C121.178 244.415 121.276 244.318 121.276 244.171C122.788 237.379 124.886 231.417 127.569 226.433C136.057 210.601 132.398 183.139 132.349 182.895C132.398 182.748 132.252 182.602 132.105 182.553ZM126.886 226.091C124.251 231.026 122.105 236.939 120.593 243.585C111.91 240.946 106.397 238.356 106.3 238.356C106.251 238.356 106.202 238.307 106.202 238.307C106.153 238.307 105.909 238.258 105.519 238.258C104.641 238.258 103.08 238.405 101.324 239.236C101.763 234.984 102.495 228.632 103.421 221.058C113.324 205.91 128.398 187.781 131.666 183.97C132.252 188.954 134.349 212.165 126.886 226.091Z" fill="#E8AE37"/>
<path d="M100.836 239.969C100.543 242.803 100.397 244.415 100.397 244.415C100.397 244.415 107.47 250.817 119.129 254.97C119.471 251.941 120.007 248.178 120.934 244.122C111.91 241.386 106.153 238.747 106.153 238.747C106.153 238.747 103.568 238.356 100.836 239.969Z" fill="#191446"/>
<path d="M106.349 238.356C106.3 238.356 106.251 238.307 106.251 238.307C106.153 238.307 103.47 237.965 100.69 239.627C100.592 239.675 100.495 239.822 100.495 239.969C100.202 242.803 100.056 244.415 100.056 244.415C100.056 244.562 100.104 244.66 100.202 244.757C100.251 244.806 107.471 251.256 119.081 255.361C119.129 255.361 119.178 255.41 119.227 255.41C119.325 255.41 119.373 255.41 119.471 255.361C119.568 255.312 119.666 255.166 119.666 255.068C120.056 251.403 120.69 247.738 121.422 244.269C121.471 244.073 121.325 243.829 121.13 243.78C112.154 240.995 106.397 238.356 106.349 238.356ZM118.788 254.384C108.544 250.67 101.909 245.197 100.836 244.269C100.885 243.78 101.031 242.363 101.226 240.262C103.519 238.991 105.666 239.138 106.056 239.138C106.69 239.431 112.154 241.874 120.447 244.415C119.715 247.64 119.178 251.012 118.788 254.384Z" fill="#191446"/>
<path d="M238.597 178.839C238.597 178.839 253.231 238.209 264.695 238.845C262.793 224.772 258.988 204.933 258.988 204.933L258.939 202.343C252.207 188.417 243.475 176.396 238.597 178.839Z" fill="#E8AE37"/>
<path d="M259.329 202.148C254.353 191.886 247.036 180.256 241.475 178.351C240.353 177.96 239.329 178.009 238.45 178.448C238.255 178.546 238.207 178.742 238.207 178.937C238.792 181.38 253.036 238.6 264.695 239.236C264.793 239.236 264.939 239.187 264.988 239.089C265.085 238.991 265.134 238.894 265.085 238.747C263.183 224.821 259.427 204.982 259.378 204.884L259.329 202.294C259.378 202.245 259.378 202.196 259.329 202.148ZM264.207 238.307C253.719 236.108 240.304 183.872 239.085 179.084C239.719 178.888 240.402 178.888 241.182 179.181C245.621 180.696 252.256 189.589 258.5 202.441L258.597 204.982C258.646 205.177 262.305 224.43 264.207 238.307Z" fill="#E8AE37"/>
<path d="M211.327 125.382C210.401 125.284 209.571 125.919 209.474 126.847C209.376 127.776 210.01 128.607 210.937 128.704C225.377 130.463 246.597 134.861 248.548 139.259C248.841 139.894 249.426 140.236 250.06 140.236C250.304 140.236 250.499 140.188 250.743 140.09C251.573 139.699 251.963 138.722 251.573 137.842C248.158 130.17 217.474 126.115 211.327 125.382Z" fill="#4461AB"/>
<path d="M160.789 128.313C159.716 128.362 134.642 129.388 117.812 152.501C117.276 153.234 117.422 154.309 118.203 154.847C118.495 155.042 118.837 155.189 119.178 155.189C119.715 155.189 120.203 154.945 120.544 154.505C136.398 132.76 160.692 131.685 160.936 131.685C161.863 131.636 162.594 130.903 162.546 129.926C162.497 128.998 161.765 128.313 160.887 128.313C160.789 128.313 160.789 128.313 160.789 128.313Z" fill="#4461AB"/>
<path d="M114.593 92.3003C112.007 98.2618 115.812 125.577 115.812 125.577L130.788 135.301C130.788 135.301 149.716 125.039 150.252 113.263C150.789 101.487 134.984 77.2501 134.984 77.2501C134.984 77.2501 117.178 86.3389 114.593 92.3003Z" fill="#F9C09D"/>
<path d="M134.837 76.908C134.106 77.2989 116.837 86.0945 114.251 92.1537C111.666 98.164 115.276 124.551 115.422 125.675C115.422 125.772 115.52 125.919 115.617 125.968L130.593 135.692C130.642 135.741 130.74 135.741 130.837 135.741C130.886 135.741 130.984 135.741 131.032 135.692C131.813 135.252 150.155 125.137 150.692 113.263C151.228 101.487 136.008 78.0319 135.374 77.0057C135.228 76.8591 134.984 76.8103 134.837 76.908ZM149.862 113.263C149.374 124.013 132.935 133.64 130.837 134.861L116.203 125.382C115.861 122.938 112.593 98.0174 114.983 92.4957C117.276 87.1695 132.398 79.1557 134.837 77.8364C136.691 80.7194 150.35 102.464 149.862 113.263Z" fill="#F9C09D"/>
<path d="M128.252 102.317C120.154 106.227 119.374 122.694 119.374 122.694C119.374 122.694 123.52 121.375 126.935 117.612C130.301 113.801 146.35 115.56 147.667 116.39C148.935 117.221 136.35 98.4083 128.252 102.317Z" fill="#F9AE82"/>
<path d="M128.057 101.927C119.813 105.934 118.935 121.961 118.935 122.645C118.935 122.792 118.983 122.89 119.081 122.987C119.178 123.036 119.227 123.085 119.325 123.085C119.374 123.085 119.422 123.085 119.471 123.085C119.666 123.036 123.764 121.717 127.179 117.857C130.398 114.289 146.253 116 147.374 116.733C147.521 116.83 147.862 116.83 148.009 116.684C148.204 116.488 148.448 116.195 146.057 112.921C144.252 110.527 134.935 98.6039 128.057 101.927ZM146.935 115.706C143.13 114.778 129.764 113.752 126.593 117.319C124.057 120.153 121.081 121.57 119.813 122.059C120.057 119.029 121.52 106.031 128.447 102.66C129.13 102.318 129.862 102.171 130.691 102.171C131.764 102.171 132.935 102.464 134.203 103.051C139.764 105.738 145.472 113.263 146.935 115.706Z" fill="#F9AE82"/>
<path d="M127.861 80.9148C122.983 83.4069 122.788 92.7889 127.422 101.878C132.057 110.967 139.764 116.342 144.642 113.85C149.521 111.357 149.716 101.975 145.082 92.8866C140.447 83.7978 132.74 78.4227 127.861 80.9148Z" fill="#924260"/>
<path d="M127.715 80.5239C122.642 83.1137 122.398 92.7889 127.13 102.073C129.422 106.52 132.496 110.282 135.764 112.579C137.959 114.143 140.154 114.925 142.057 114.925C143.081 114.925 144.008 114.729 144.886 114.289C147.374 113.019 148.789 110.038 148.886 105.933C148.984 101.926 147.764 97.2356 145.472 92.7889C140.74 83.4069 132.74 77.9341 127.715 80.5239ZM148.008 105.836C147.911 109.647 146.691 112.335 144.447 113.459C142.252 114.582 139.325 113.996 136.203 111.846C133.032 109.598 130.057 106.031 127.813 101.682C123.276 92.7889 123.422 83.6512 128.056 81.2568C128.788 80.8659 129.617 80.6705 130.496 80.6705C135.032 80.6705 140.886 85.6058 144.691 93.0332C146.935 97.431 148.106 101.975 148.008 105.836Z" fill="#924260"/>
<path d="M133.374 78.5693C128.593 81.0125 128.447 90.1991 132.983 99.0924C137.52 107.986 145.033 113.263 149.813 110.82C154.594 108.377 154.74 99.1901 150.203 90.2968C145.667 81.3546 138.106 76.1261 133.374 78.5693Z" fill="#191446"/>
<path d="M133.179 78.1786C128.203 80.7196 127.959 90.1993 132.593 99.288C134.837 103.637 137.813 107.302 141.081 109.55C143.228 111.064 145.374 111.846 147.228 111.846C148.203 111.846 149.13 111.651 150.008 111.211C154.984 108.67 155.228 99.1903 150.594 90.1015C145.959 80.9638 138.106 75.6377 133.179 78.1786ZM149.618 110.429C147.472 111.553 144.594 110.967 141.569 108.865C138.447 106.715 135.52 103.148 133.374 98.8971C128.935 90.1992 129.032 81.2571 133.618 78.9116C134.349 78.5207 135.179 78.374 136.008 78.374C140.447 78.374 146.155 83.2116 149.862 90.4435C154.252 99.1414 154.155 108.133 149.618 110.429Z" fill="#191446"/>
<path d="M172.156 139.503C167.96 143.657 168.497 156.801 168.497 156.801C168.497 156.801 175.326 145.514 186.693 146.54C186.693 146.589 176.302 135.35 172.156 139.503Z" fill="#E8AE37"/>
<path d="M174.595 138.135C173.473 138.135 172.546 138.477 171.863 139.161C167.619 143.412 168.058 156.264 168.107 156.801C168.107 156.997 168.253 157.143 168.4 157.192C168.448 157.192 168.448 157.192 168.497 157.192C168.643 157.192 168.79 157.095 168.839 156.997C168.887 156.899 175.668 145.954 186.644 146.931C186.839 146.931 186.985 146.833 187.083 146.686C187.181 146.54 187.132 146.344 187.034 146.198C186.693 145.954 179.522 138.233 174.595 138.135ZM185.229 146.1C176.741 146.1 170.887 152.843 168.887 155.531C168.887 152.159 169.18 143.022 172.4 139.845C172.936 139.308 173.619 139.064 174.448 139.064C174.497 139.064 174.497 139.064 174.546 139.064C178.254 139.161 183.668 144.194 185.62 146.149C185.522 146.1 185.376 146.1 185.229 146.1Z" fill="#E8AE37"/>
<path d="M192.107 146.149C192.107 146.149 201.083 139.65 212.986 154.847C212.986 154.847 208.303 136.425 203.522 136.62C198.791 136.767 193.717 139.65 192.107 146.149Z" fill="#E8AE37"/>
<path d="M203.62 136.181C203.571 136.181 203.571 136.181 203.522 136.181C198.986 136.376 193.473 139.015 191.717 146.051C191.668 146.247 191.766 146.393 191.863 146.491C192.01 146.589 192.205 146.589 192.351 146.491C192.693 146.247 201.181 140.432 212.645 155.091C212.742 155.189 212.84 155.238 212.986 155.238C213.035 155.238 213.132 155.238 213.181 155.189C213.376 155.091 213.474 154.896 213.425 154.7C212.937 152.794 208.547 136.181 203.62 136.181ZM197.229 144.39C195.229 144.39 193.668 144.878 192.79 145.318C194.693 139.454 199.522 137.158 203.571 137.011H203.62C206.84 137.011 210.449 147.273 212.108 153.039C206.108 146.051 200.888 144.39 197.229 144.39Z" fill="#E8AE37"/>
<path d="M175.522 118.54C174.009 118.883 173.131 119.127 173.131 119.127C173.131 119.127 182.156 147.371 189.083 146.589C193.961 146.051 201.474 128.949 203.084 119.322C184.059 143.803 175.522 118.54 175.522 118.54Z" fill="#F9C09D"/>
<path d="M202.693 119.029C196.693 126.799 191.181 130.268 186.303 129.486C179.327 128.314 175.912 118.541 175.912 118.443C175.863 118.247 175.619 118.101 175.424 118.15L173.034 118.736C172.936 118.785 172.839 118.834 172.741 118.931C172.692 119.029 172.692 119.176 172.692 119.274C173.083 120.446 181.668 147.029 188.742 147.029C188.839 147.029 188.937 147.029 189.083 147.029C194.498 146.393 201.962 128.362 203.474 119.42C203.523 119.225 203.425 119.029 203.23 118.98C203.035 118.785 202.84 118.834 202.693 119.029ZM188.986 146.149C188.888 146.149 188.839 146.149 188.742 146.149C183.473 146.149 176.205 127.336 173.619 119.42L175.229 119.029C175.912 120.886 179.376 129.144 186.156 130.268C191.083 131.099 196.498 127.922 202.303 120.837C200.108 131.099 193.083 145.66 188.986 146.149Z" fill="#F9C09D"/>
<path d="M201.327 112.872C195.864 113.85 181.278 117.172 175.521 118.541C175.521 118.541 184.058 143.803 203.035 119.274C203.718 115.218 203.376 112.53 201.327 112.872Z" fill="#E68262"/>
<path d="M201.278 112.481C196.059 113.41 182.839 116.439 175.424 118.15C175.326 118.198 175.229 118.247 175.131 118.345C175.083 118.443 175.083 118.589 175.083 118.687C175.229 119.127 178.644 129.046 186.156 130.317C186.644 130.415 187.18 130.464 187.717 130.464C192.547 130.464 197.766 126.799 203.376 119.567C203.425 119.518 203.425 119.469 203.474 119.371C204.059 116.048 203.864 113.85 202.937 112.97C202.644 112.628 202.108 112.286 201.278 112.481ZM202.303 113.507C202.693 113.898 203.279 115.169 202.644 119.078C196.693 126.75 191.181 130.219 186.302 129.437C180.205 128.411 176.839 120.739 176.058 118.834C182.302 117.368 196.156 114.192 201.376 113.263C201.815 113.214 202.108 113.312 202.303 113.507Z" fill="#E68262"/>
<path d="M192.107 146.149C202.205 126.31 212.986 154.847 212.986 154.847C212.986 154.847 216.059 129.388 214.498 125.284C212.986 121.179 203.327 115.511 203.327 115.511C203.327 115.511 204.303 118.345 199.083 129.144C193.864 139.943 192.107 146.149 192.107 146.149Z" fill="#2893D0"/>
<path d="M191.717 146.051C191.668 146.247 191.766 146.491 191.961 146.54C192.156 146.638 192.4 146.54 192.498 146.345C194.839 141.702 197.425 139.406 200.108 139.552C206.839 139.894 212.547 154.798 212.596 154.994C212.645 155.14 212.84 155.287 212.986 155.287H213.035C213.23 155.287 213.376 155.091 213.425 154.896C213.571 153.87 216.498 129.291 214.937 125.137C213.376 120.935 204.01 115.364 203.571 115.12C203.425 115.022 203.23 115.071 203.083 115.169C202.937 115.267 202.888 115.462 202.937 115.609C202.937 115.658 203.717 118.589 198.742 128.9C193.62 139.601 191.717 145.954 191.717 146.051ZM203.864 116.293C206.108 117.661 212.937 122.157 214.157 125.431C215.425 128.802 213.425 147.517 212.791 153.137C211.084 149.179 206.157 139.015 200.205 138.722C200.108 138.722 200.01 138.722 199.912 138.722C197.766 138.722 195.717 140.041 193.815 142.582C194.888 139.699 196.742 135.155 199.522 129.291C203.23 121.57 203.815 117.808 203.864 116.293Z" fill="#2893D0"/>
<path d="M228.645 89.3196C229.182 81.941 237.816 40.4063 202.01 29.9493C166.204 19.4923 133.862 32.7835 129.422 63.3726C129.422 63.3726 130.008 85.8502 138.984 91.6651C147.96 97.48 148.691 119.958 143.374 122.841C140.35 124.502 147.667 123.671 154.448 122.645C158.106 117.808 155.326 106.52 153.326 104.174C151.179 101.585 149.13 93.3265 147.569 88.8798C146.008 84.4332 147.52 80.2796 147.52 80.2796C147.52 80.2796 165.863 103.832 172.058 115.902C173.424 114.876 174.351 114.192 174.351 114.192H195.717C196.986 106.618 204.352 77.9342 204.352 77.9342C204.352 77.9342 209.23 78.9603 212.986 80.2796C216.742 81.599 218.791 99.3369 212.303 106.276C208.059 110.869 209.425 117.71 210.888 121.912C213.62 123.085 216.645 124.013 219.913 124.355C219.913 124.355 215.962 113.507 219.913 108.621C223.962 103.783 228.108 96.747 228.645 89.3196Z" fill="#4461AB"/>
<path d="M229.084 89.3684C229.133 88.7332 229.231 87.8047 229.377 86.6319C230.792 74.9045 235.133 39.1847 202.108 29.5584C181.424 23.548 161.521 25.2583 147.472 34.2982C137.179 40.8949 130.788 50.9609 128.983 63.4213C129.032 64.3498 129.666 86.1922 138.74 92.0559C144.057 95.5253 146.545 105.347 146.252 113.263C146.057 118.052 144.886 121.57 143.179 122.499C142.837 122.694 142.106 123.085 142.301 123.671C142.447 124.16 142.691 124.893 154.545 123.085C154.643 123.085 154.74 122.987 154.838 122.938C158.692 117.807 155.716 106.324 153.716 103.93C152.204 102.122 150.643 97.089 149.423 93.0332C148.935 91.4696 148.496 90.0037 148.057 88.7821C146.984 85.6059 147.472 82.5763 147.813 81.2081C150.789 85.0683 166.253 105.347 171.814 116.146C171.863 116.244 171.96 116.342 172.107 116.342C172.204 116.39 172.351 116.342 172.448 116.293C173.57 115.511 174.351 114.876 174.643 114.631H195.864C196.059 114.631 196.254 114.485 196.303 114.289C197.473 107.302 203.961 81.941 204.839 78.4716C206.059 78.7648 209.962 79.6444 213.035 80.7194C213.962 81.0126 214.889 82.7228 215.474 85.2149C216.889 90.8832 216.791 101.096 212.157 106.031C207.913 110.624 208.986 117.27 210.645 122.108C210.693 122.205 210.791 122.303 210.888 122.352C214.011 123.671 217.084 124.502 220.011 124.844H220.059C220.206 124.844 220.303 124.795 220.401 124.697C220.499 124.6 220.499 124.453 220.45 124.306C220.401 124.209 216.596 113.605 220.401 108.963C223.328 105.201 228.45 97.7731 229.084 89.3684ZM219.425 123.867C216.84 123.525 214.108 122.792 211.376 121.619C209.815 117.075 208.84 110.82 212.742 106.569C217.572 101.389 217.718 90.7855 216.254 84.9706C215.864 83.3092 214.889 80.4751 213.279 79.8887C209.523 78.5694 204.644 77.5432 204.596 77.5432C204.352 77.4944 204.157 77.6409 204.108 77.8363C204.059 78.1295 196.937 105.787 195.522 113.801H174.546C174.448 113.801 174.351 113.849 174.302 113.898C174.302 113.898 173.57 114.485 172.399 115.315C166.058 103.197 148.252 80.2796 148.057 80.0352C147.96 79.9375 147.813 79.8399 147.667 79.8887C147.521 79.8887 147.374 80.0353 147.325 80.1819C147.277 80.3773 145.764 84.5308 147.325 89.0752C147.716 90.2479 148.204 91.7139 148.643 93.2776C149.96 97.6265 151.472 102.562 153.131 104.516C154.935 106.666 157.716 117.514 154.301 122.352C146.74 123.476 144.252 123.525 143.423 123.427C143.472 123.378 143.569 123.329 143.618 123.28C145.618 122.205 146.935 118.443 147.13 113.312C147.423 105.396 145.081 95.1345 139.228 91.3719C130.544 85.7525 129.861 63.6657 129.861 63.5191C131.618 51.3519 137.911 41.5301 147.96 35.0312C161.814 26.1378 181.473 24.4276 201.913 30.389C234.206 39.8199 229.962 75.0022 228.596 86.5342C228.45 87.707 228.352 88.6355 228.304 89.2707C227.718 97.4311 222.694 104.712 219.767 108.328C216.157 112.726 218.596 121.424 219.425 123.867Z" fill="#4461AB"/>
<path d="M164.35 121.081C167.033 119.567 170.106 117.417 172.155 115.951C165.96 103.881 147.618 80.3285 147.618 80.3285C147.618 80.3285 146.106 84.482 147.667 88.9287C149.228 93.3753 151.228 101.633 153.423 104.223C155.423 106.569 158.155 117.856 154.545 122.694C159.569 121.961 164.35 121.081 164.35 121.081Z" fill="#283A84"/>
<path d="M154.106 122.89C154.203 123.036 154.301 123.085 154.447 123.085H154.496C159.521 122.352 164.35 121.472 164.399 121.472C164.448 121.472 164.497 121.424 164.545 121.424C167.228 119.909 170.253 117.808 172.35 116.244C172.497 116.146 172.594 115.902 172.497 115.706C166.35 103.735 148.106 80.2308 147.911 79.9865C147.813 79.8888 147.667 79.791 147.52 79.8399C147.374 79.8399 147.228 79.9865 147.179 80.1331C147.13 80.3286 145.618 84.482 147.179 89.0264C147.569 90.1992 148.057 91.665 148.496 93.2287C149.813 97.5776 151.325 102.513 152.984 104.468C154.838 106.666 157.618 117.71 154.057 122.45C154.057 122.596 154.008 122.743 154.106 122.89ZM153.716 103.93C152.203 102.122 150.642 97.0891 149.423 93.0333C148.935 91.4696 148.496 90.0037 148.057 88.7821C146.984 85.6059 147.472 82.5763 147.813 81.2081C150.789 85.0684 165.96 104.956 171.619 115.804C169.57 117.27 166.74 119.274 164.253 120.642C163.667 120.739 159.716 121.424 155.374 122.108C158.399 116.684 155.618 106.178 153.716 103.93Z" fill="#283A84"/>
<path d="M213.083 80.3285C209.278 79.0092 204.449 77.983 204.449 77.983C204.449 77.983 197.083 106.715 195.814 114.24H198.937C198.937 114.24 203.863 118.883 210.986 121.961C209.522 117.759 208.156 110.918 212.4 106.324C218.888 99.3368 216.888 81.599 213.083 80.3285Z" fill="#283A84"/>
<path d="M216.206 84.9707C215.815 83.3093 214.84 80.4752 213.23 79.8888C209.474 78.5695 204.595 77.5433 204.547 77.5433C204.303 77.4944 204.108 77.6409 204.059 77.8364C203.961 78.1296 196.644 106.666 195.424 114.143C195.424 114.24 195.424 114.387 195.522 114.485C195.619 114.582 195.717 114.631 195.863 114.631H198.839C199.668 115.364 204.4 119.518 210.888 122.303C210.937 122.303 210.986 122.352 211.035 122.352C211.132 122.352 211.23 122.303 211.327 122.254C211.425 122.157 211.474 121.961 211.425 121.814C209.815 117.221 208.742 110.869 212.742 106.618C217.571 101.389 217.669 90.8344 216.206 84.9707ZM210.303 121.179C203.766 118.199 199.278 113.996 199.229 113.947C199.132 113.85 199.034 113.85 198.937 113.85H196.302C197.668 106.276 203.864 81.8922 204.742 78.5206C205.961 78.8138 209.864 79.6933 212.937 80.7683C213.864 81.0615 214.791 82.7718 215.376 85.2639C216.791 90.9322 216.693 101.145 212.059 106.08C208.108 110.331 208.839 116.488 210.303 121.179Z" fill="#283A84"/>
<path d="M144.35 89.3194C142.74 97.2355 153.521 101.242 156.789 99.581C160.009 97.9684 151.374 83.7 151.374 83.7C151.374 83.7 146.008 81.4034 144.35 89.3194Z" fill="#F9AE82"/>
<path d="M151.57 83.358C151.472 83.3092 149.472 82.4785 147.423 83.5536C145.716 84.4331 144.545 86.3877 143.96 89.2707C143.325 92.4469 144.545 95.4764 147.423 97.6753C149.618 99.3856 152.643 100.412 154.936 100.412C155.716 100.412 156.448 100.265 156.984 100.021C157.423 99.8254 157.667 99.4345 157.814 98.9459C158.838 95.3299 152.009 84.0422 151.716 83.5536C151.716 83.4558 151.618 83.4069 151.57 83.358ZM157.033 98.7015C156.936 98.9947 156.838 99.1413 156.594 99.239C154.936 100.07 150.887 99.2879 147.911 96.9913C146.057 95.5742 144.008 93.0821 144.74 89.4173C145.277 86.7786 146.301 85.0684 147.765 84.2865C148.399 83.9445 149.033 83.8467 149.618 83.8467C150.301 83.8467 150.887 83.9933 151.082 84.091C153.082 87.3649 157.814 96.014 157.033 98.7015Z" fill="#F9AE82"/>
<path d="M153.569 35.6176C153.569 35.6176 177.375 25.4538 193.766 32.3437C210.157 39.1847 221.864 64.3498 224.206 75.1488C226.547 85.9479 231.23 58.6328 231.23 58.6328C231.23 58.6328 196.4 1.21698 153.569 35.6176Z" fill="#283A84"/>
<path d="M188.302 24.8184C176.351 22.7173 164.594 26.2355 153.326 35.3243C153.179 35.4709 153.13 35.6664 153.228 35.8619C153.326 36.0573 153.569 36.1061 153.765 36.0573C154.009 35.9595 177.57 26.0401 193.62 32.7834C209.718 39.5267 221.425 64.2032 223.816 75.2954C224.255 77.25 224.791 78.1296 225.523 78.1296C228.108 78.0807 230.84 63.2748 231.621 58.7792C231.621 58.6815 231.621 58.5839 231.572 58.4861C231.377 58.0952 213.669 29.314 188.302 24.8184ZM225.474 77.2012C225.474 77.2012 225.035 77.1524 224.547 75.0023C222.108 63.7635 210.254 38.7448 193.863 31.9038C189.717 30.1447 185.083 29.5095 180.448 29.5095C170.497 29.5095 160.643 32.5391 156.057 34.1516C166.448 26.5287 177.229 23.6457 188.107 25.6003C212.205 29.8515 229.377 56.5804 230.743 58.6815C228.791 70.1158 226.499 77.2012 225.474 77.2012Z" fill="#283A84"/>
<path d="M163.082 16.4139C134.447 26.3334 128.154 49.4463 126.154 65.3272C124.154 81.2082 133.374 63.8613 133.374 63.8613C133.374 63.8613 134.252 53.2088 140.935 45.9769C147.618 38.7449 163.619 24.1345 191.717 29.5585C219.816 34.9824 227.377 62.6397 227.377 62.6397L234.548 59.5123C234.548 59.5123 230.45 43.8268 220.889 33.3698C211.328 22.9128 191.766 6.4944 163.082 16.4139Z" fill="#504566"/>
<path d="M162.985 16.0228C141.13 23.5968 128.984 39.7221 125.764 65.2782C125.179 69.8226 125.471 72.0216 126.642 72.4125C126.74 72.4613 126.837 72.4613 126.935 72.4613C129.13 72.4613 132.642 66.109 133.715 64.1055C133.764 64.0566 133.764 64.0078 133.764 63.9589C133.764 63.8612 134.74 53.3553 141.228 46.3677C154.74 31.7084 171.717 26.2355 191.62 30.0958C219.133 35.3732 226.889 62.5907 226.938 62.8839C226.987 62.9816 227.035 63.0794 227.182 63.1282C227.279 63.1771 227.426 63.1771 227.523 63.1282L234.694 60.0008C234.889 59.9031 234.987 59.7076 234.938 59.5122C234.889 59.3656 230.694 43.5824 221.182 33.1743C204.352 14.6058 184.205 8.69316 162.985 16.0228ZM227.67 62.102C226.499 58.4372 217.864 34.2005 191.815 29.1674C171.57 25.2583 154.35 30.8288 140.642 45.7324C134.301 52.6223 133.081 62.6885 132.984 63.7635C130.837 67.8192 127.91 71.9238 126.935 71.5818C126.74 71.5329 125.91 70.9465 126.642 65.3759C129.764 40.1619 141.764 24.281 163.277 16.8047C169.375 14.7035 175.131 13.7751 180.449 13.7751C198.205 13.7751 211.718 23.89 220.645 33.6629C229.231 43.0938 233.426 56.9224 234.109 59.3168L227.67 62.102Z" fill="#504566"/>
<path d="M229.865 66.3045C223.084 68.5034 220.401 79.0092 223.913 89.7594C227.425 100.461 235.767 107.351 242.548 105.152C249.329 102.953 252.012 92.4469 248.499 81.6968C244.987 70.9466 236.645 64.0567 229.865 66.3045Z" fill="#191446"/>
<path d="M240.645 68.7965C237.036 65.8158 233.133 64.7407 229.718 65.8646C226.304 66.9885 223.767 70.1159 222.596 74.7091C221.474 79.2047 221.767 84.5797 223.474 89.8571C225.182 95.1345 228.108 99.63 231.67 102.611C234.353 104.81 237.182 105.982 239.816 105.982C240.743 105.982 241.719 105.836 242.597 105.543C249.573 103.246 252.402 92.4958 248.792 81.5991C247.133 76.2728 244.255 71.7772 240.645 68.7965ZM242.402 104.712C239.28 105.738 235.67 104.761 232.255 101.927C228.791 99.0925 225.962 94.6946 224.303 89.5639C222.645 84.4331 222.303 79.2535 223.425 74.9045C224.499 70.6045 226.84 67.7216 229.962 66.6954C230.791 66.4511 231.621 66.3045 232.499 66.3045C234.987 66.3045 237.621 67.3795 240.109 69.4807C243.572 72.3148 246.402 76.7126 248.06 81.8434C251.475 92.3004 248.938 102.562 242.402 104.712Z" fill="#191446"/>
<path d="M235.231 64.5453C228.45 66.7442 225.767 77.2501 229.279 88.0003C232.792 98.7504 241.133 105.591 247.914 103.393C254.695 101.194 257.378 90.6878 253.866 79.9376C250.353 69.1874 242.012 62.2976 235.231 64.5453Z" fill="#924260"/>
<path d="M246.011 67.0375C242.402 64.0567 238.499 62.9817 235.084 64.1056C228.108 66.4022 225.279 77.1524 228.889 88.0492C230.596 93.3265 233.523 97.822 237.084 100.803C239.767 103.002 242.597 104.174 245.231 104.174C246.207 104.174 247.133 104.028 248.011 103.735C251.426 102.611 253.963 99.4834 255.134 94.8902C256.256 90.3947 255.963 85.0196 254.256 79.7422C252.499 74.5137 249.621 70.0182 246.011 67.0375ZM254.304 94.7436C253.231 99.0436 250.89 101.927 247.768 102.953C244.645 103.979 241.036 103.002 237.621 100.168C234.157 97.3334 231.328 92.9356 229.669 87.8048C226.255 77.3478 228.791 67.0374 235.328 64.8873C236.157 64.643 236.987 64.4965 237.865 64.4965C240.353 64.4965 242.987 65.5715 245.475 67.6727C248.938 70.5068 251.768 74.9046 253.426 80.0353C255.085 85.1661 255.426 90.3946 254.304 94.7436Z" fill="#924260"/>
<path d="M268.061 115.658C262.842 118.101 255.28 123.525 258.012 124.502C281.476 133.053 302.648 109.354 300.843 106.569C298.94 103.832 273.232 113.214 268.061 115.658Z" fill="#191446"/>
<path d="M267.866 115.267C264.012 117.075 256.89 121.619 256.988 123.867C256.988 124.16 257.134 124.649 257.817 124.893C261.232 126.163 264.793 126.75 268.403 126.75C273.281 126.75 278.257 125.626 283.184 123.378C290.501 120.055 296.209 114.925 299.087 111.26C300.16 109.892 301.819 107.448 301.087 106.373C298.892 103.002 271.183 113.752 267.866 115.267ZM298.453 110.771C291.818 119.225 275.037 130.317 258.11 124.16C257.817 124.062 257.817 123.916 257.817 123.867C257.768 122.547 263.281 118.394 268.208 116.097C273.866 113.459 293.574 106.52 299.087 106.52C299.818 106.52 300.257 106.618 300.453 106.911C300.648 107.106 300.257 108.426 298.453 110.771Z" fill="#504566"/>
<path d="M248.206 104.37C248.206 104.37 252.938 115.609 265.475 115.609C266.841 115.609 269.524 129.144 269.524 129.144L301.428 116.293C300.598 110.185 295.769 98.0176 291.574 92.5936C287.378 87.1696 269.28 64.8386 261.183 62.3953C253.085 59.9521 241.328 57.118 234.548 59.5612C227.816 62.0044 219.279 68.7477 215.62 70.8C211.961 72.8523 217.766 78.6671 224.108 75.1489C229.621 72.0704 234.645 69.2364 238.792 70.7023C240.987 70.3602 243.865 70.6045 242.645 70.5557C241.816 70.5068 240.792 70.8977 240.011 71.2886C240.206 71.3864 240.401 71.4841 240.548 71.6307C240.548 71.6307 215.766 85.3617 225.035 95.5255C228.791 89.2708 245.084 80.1332 245.084 80.1332C245.084 80.1332 230.06 89.9549 226.011 96.4538C226.157 96.6004 226.352 96.747 226.498 96.8936C226.498 96.8936 225.035 101.878 230.938 103.979C231.133 102.513 231.523 100.363 232.352 99.4834C233.182 98.6039 237.962 95.0856 241.718 92.3981C244.255 90.5412 246.304 89.1242 246.304 89.1242C246.304 89.1242 244.255 90.5901 241.718 92.3981C237.962 95.1833 233.133 99.0925 232.547 101.243C232.157 102.611 232.011 103.588 231.962 104.321C232.206 104.37 232.401 104.468 232.694 104.516C232.694 104.516 233.23 111.553 240.109 110.087C246.938 108.621 246.206 106.618 245.67 104.859C243.767 104.223 241.035 104.712 242.011 104.468C243.231 104.126 247.767 103.002 247.767 103.002C247.767 103.002 247.719 103.539 247.67 104.272C248.06 104.272 248.206 104.37 248.206 104.37Z" fill="#F9C09D"/>
<path d="M247.621 104.565C247.719 104.614 247.816 104.614 247.865 104.663C248.499 106.031 253.573 116 265.378 116C265.378 116 265.378 116 265.427 116C266.207 116.488 267.915 123.085 269.134 129.193C269.183 129.34 269.232 129.437 269.329 129.486C269.378 129.535 269.476 129.535 269.524 129.535C269.573 129.535 269.622 129.535 269.671 129.486L301.574 116.635C301.769 116.586 301.867 116.391 301.818 116.195C301.038 110.185 296.257 98.0175 291.867 92.3004C291.671 92.0072 270.451 64.7408 261.28 62.0044C248.694 58.2419 239.67 57.2645 234.401 59.1703C229.718 60.8805 224.108 64.6431 220.059 67.4284C218.206 68.6989 216.547 69.8228 215.425 70.458C214.108 71.191 213.718 72.5592 214.449 73.8785C215.669 76.1263 219.913 77.9831 224.352 75.5398L224.694 75.3444C229.913 72.4614 234.84 69.725 238.743 71.0933C238.792 71.1421 238.889 71.1421 238.938 71.0933C239.231 71.0444 239.475 71.0443 239.767 70.9954C239.719 71.0443 239.67 71.142 239.67 71.2398C239.67 71.3863 239.719 71.4842 239.816 71.5819C236.792 73.341 224.06 81.2082 222.742 89.1731C222.352 91.6163 223.035 93.8152 224.791 95.7698C224.889 95.8675 225.035 95.9163 225.133 95.9163C225.279 95.9163 225.377 95.8186 225.474 95.7209C226.986 93.2288 230.499 90.248 234.206 87.6093C230.743 90.4435 227.377 93.5709 225.718 96.2584C225.621 96.4539 225.621 96.6493 225.816 96.7959L225.962 96.9425C226.011 96.9914 226.06 97.0403 226.108 97.0891C225.913 98.213 225.474 102.513 230.889 104.419C230.987 104.468 231.133 104.468 231.23 104.37C231.328 104.321 231.426 104.174 231.426 104.077C231.67 101.976 232.157 100.412 232.743 99.7767C232.84 99.6301 233.084 99.4346 233.377 99.1903C232.743 99.9721 232.352 100.607 232.206 101.145C231.865 102.367 231.67 103.393 231.621 104.321C231.621 104.517 231.767 104.712 231.962 104.761L232.206 104.81C232.255 104.81 232.352 104.859 232.401 104.859C232.548 105.738 233.035 108.181 234.987 109.647C236.353 110.673 238.158 110.967 240.304 110.478C243.621 109.745 245.475 108.865 246.207 107.644C246.792 106.618 246.451 105.591 246.207 104.712C246.158 104.565 246.06 104.468 245.963 104.419C245.621 104.272 245.231 104.223 244.841 104.174C245.816 103.93 246.841 103.637 247.475 103.49C247.475 103.686 247.426 103.93 247.426 104.174C247.377 104.37 247.475 104.517 247.621 104.565ZM242.011 104.028C241.816 104.077 241.426 104.174 241.523 104.565C241.572 104.956 241.914 104.956 242.353 104.907C243.036 104.907 244.402 104.81 245.475 105.152C245.719 105.885 245.865 106.569 245.524 107.204C244.938 108.181 243.182 108.963 240.206 109.647C238.304 110.038 236.743 109.843 235.572 108.963C233.572 107.448 233.279 104.516 233.279 104.516C233.279 104.321 233.133 104.174 232.938 104.126C232.84 104.077 232.694 104.077 232.596 104.028C232.645 103.295 232.84 102.367 233.133 101.389C233.572 99.8256 236.792 96.747 242.158 92.789C244.694 90.981 246.743 89.5151 246.743 89.5151C246.938 89.3685 246.987 89.1242 246.841 88.9288C246.694 88.7333 246.451 88.6844 246.255 88.831C246.255 88.831 244.158 90.2481 241.621 92.105C236.011 96.1119 232.84 98.5061 232.157 99.2391C231.377 100.119 230.938 101.927 230.694 103.441C225.816 101.438 226.938 97.2357 226.986 97.0402C227.035 96.8936 226.986 96.6982 226.84 96.6005C226.743 96.5516 226.694 96.4538 226.596 96.4049C230.791 90.0526 245.182 80.5729 245.329 80.4752C245.524 80.3286 245.572 80.0843 245.475 79.8889C245.377 79.6934 245.085 79.6445 244.889 79.7422C244.255 80.0843 229.279 88.5379 225.035 94.7925C223.718 93.1311 223.181 91.323 223.523 89.3196C224.938 80.8172 240.645 72.0216 240.792 71.9727C240.938 71.9239 240.987 71.7773 240.987 71.6307C240.987 71.533 240.938 71.4353 240.889 71.3376C241.572 71.0444 242.206 70.8978 242.646 70.9466C242.987 70.9466 243.182 70.9954 243.328 70.7511C243.426 70.6045 243.377 70.458 243.328 70.3114C243.28 70.2625 243.133 70.2136 242.938 70.1648V70.116C242.889 70.116 242.841 70.116 242.694 70.116C242.645 70.116 242.646 70.116 242.597 70.116C241.475 70.0182 239.377 70.2136 238.84 70.2625C234.596 68.8454 229.572 71.6307 224.206 74.6115L223.864 74.8069C219.913 77.0058 216.206 75.3933 215.132 73.4876C214.84 72.9501 214.498 71.9239 215.767 71.2398C216.937 70.6045 218.547 69.4807 220.45 68.2102C224.499 65.4738 230.011 61.7112 234.596 60.0498C239.67 58.193 248.548 59.1703 260.939 62.884C268.354 65.1318 285.232 85.3128 291.135 92.9356C295.33 98.3107 299.964 110.185 300.843 116.097L269.72 128.655C268.451 122.45 266.744 115.267 265.378 115.267C253.231 115.267 248.499 104.419 248.451 104.272C248.402 104.174 248.353 104.077 248.255 104.028C248.255 104.028 248.207 103.979 248.109 103.979C248.109 103.441 248.158 103.051 248.158 103.051C248.158 102.904 248.109 102.757 248.012 102.66C247.914 102.562 247.768 102.513 247.621 102.562C247.768 102.513 243.231 103.686 242.011 104.028Z" fill="#F9C09D"/>
<path d="M226.108 96.4538C230.108 89.9548 245.182 80.1331 245.182 80.1331C245.182 80.1331 228.889 89.2708 225.132 95.5254C225.425 95.8186 225.718 96.1606 226.108 96.4538Z" fill="#DA6249"/>
<path d="M244.938 79.7423C244.255 80.1332 228.499 89.0265 224.742 95.2812C224.645 95.4278 224.645 95.6232 224.791 95.7698C225.084 96.1119 225.425 96.4051 225.815 96.7471C225.913 96.796 226.011 96.8448 226.108 96.8448H226.157C226.255 96.8448 226.401 96.747 226.45 96.6493C230.352 90.2969 245.231 80.524 245.377 80.4263C245.572 80.2797 245.621 80.0354 245.523 79.84C245.377 79.6934 245.133 79.6445 244.938 79.7423ZM226.011 95.8186C225.864 95.7209 225.767 95.5743 225.669 95.4766C227.23 93.0334 230.694 90.1992 234.255 87.6094C230.938 90.2969 227.718 93.2777 226.011 95.8186Z" fill="#DA6249"/>
<path d="M246.451 89.1241C246.451 89.1241 244.402 90.4923 241.865 92.398C242.695 91.8117 243.475 91.2253 244.158 90.7367C245.524 89.7594 246.451 89.1241 246.451 89.1241Z" fill="#DA6249"/>
<path d="M246.207 88.7821C246.207 88.7821 244.109 90.1991 241.572 92.056C241.377 92.2026 241.328 92.4469 241.475 92.6423C241.572 92.7401 241.67 92.8379 241.816 92.8379C241.914 92.8379 242.011 92.7889 242.06 92.74L244.353 91.1276C245.719 90.1503 246.646 89.5151 246.646 89.5151C246.841 89.3685 246.89 89.1242 246.743 88.9287C246.694 88.6844 246.402 88.6355 246.207 88.7821Z" fill="#DA6249"/>
<path d="M232.109 104.321C232.158 103.588 232.304 102.611 232.694 101.243C233.28 99.0925 238.109 95.1833 241.865 92.398C238.109 95.0856 233.28 98.6038 232.499 99.4834C231.67 100.412 231.28 102.513 231.084 103.979C231.377 104.125 231.719 104.223 232.109 104.321Z" fill="#DA6249"/>
<path d="M241.621 92.0559C236.011 96.0628 232.84 98.4572 232.157 99.1902C231.279 100.167 230.84 102.318 230.645 103.93C230.596 104.125 230.743 104.321 230.938 104.37C231.279 104.467 231.621 104.614 232.011 104.712C232.06 104.712 232.06 104.712 232.109 104.712C232.206 104.712 232.304 104.663 232.353 104.614C232.45 104.516 232.499 104.419 232.548 104.321C232.596 103.49 232.792 102.513 233.084 101.34C233.523 99.7765 236.743 96.698 242.109 92.74C242.304 92.5934 242.353 92.3491 242.207 92.1537C242.06 91.9582 241.816 91.9094 241.621 92.0559ZM232.255 101.145C231.962 102.122 231.816 103.002 231.718 103.783C231.67 103.783 231.572 103.735 231.523 103.735C231.767 101.78 232.255 100.412 232.792 99.7766C232.889 99.63 233.133 99.4345 233.426 99.1902C232.792 99.9232 232.401 100.607 232.255 101.145Z" fill="#DA6249"/>
<path d="M247.817 104.174C247.817 103.49 247.914 102.904 247.914 102.904C247.914 102.904 243.377 104.077 242.158 104.37C241.182 104.663 243.963 104.126 245.817 104.761V104.712C245.377 103.392 246.987 103.881 247.817 104.174Z" fill="#DA6249"/>
<path d="M247.621 104.565C247.768 104.614 247.914 104.614 248.012 104.516C248.109 104.419 248.207 104.321 248.207 104.174C248.207 103.49 248.304 102.953 248.304 102.953C248.304 102.806 248.256 102.66 248.158 102.562C248.061 102.464 247.914 102.415 247.768 102.464C247.768 102.464 243.231 103.637 242.012 103.93C241.816 103.979 241.426 104.077 241.524 104.467C241.572 104.858 241.914 104.859 242.353 104.81C243.085 104.761 244.548 104.712 245.67 105.103C245.719 105.103 245.719 105.103 245.768 105.103C245.865 105.103 246.012 105.054 246.06 104.956C246.158 104.858 246.207 104.663 246.158 104.516C246.06 104.272 246.109 104.174 246.109 104.174C246.207 104.272 246.597 104.174 247.621 104.565ZM247.378 103.49C247.378 103.539 247.378 103.588 247.378 103.588C247.28 103.588 247.231 103.539 247.134 103.539C247.231 103.539 247.329 103.49 247.378 103.49ZM245.329 104.223C245.182 104.174 244.987 104.174 244.792 104.125C244.987 104.077 245.182 104.028 245.377 103.979C245.329 104.077 245.329 104.174 245.329 104.223Z" fill="#DA6249"/>
<path d="M240.109 71.2397C240.938 70.8488 241.962 70.4579 242.743 70.5067C243.914 70.5556 241.084 70.3113 238.889 70.6533C239.279 70.7999 239.718 70.9954 240.109 71.2397Z" fill="#DA6249"/>
<path d="M242.987 70.116C242.938 70.116 242.889 70.116 242.743 70.116C242.694 70.116 242.694 70.116 242.645 70.116C241.426 70.0183 238.987 70.2136 238.792 70.2625C238.597 70.3113 238.45 70.458 238.45 70.6534C238.45 70.8489 238.548 71.0444 238.743 71.0933C239.084 71.2399 239.475 71.3864 239.914 71.6307C239.962 71.6796 240.06 71.6796 240.109 71.6796C240.158 71.6796 240.255 71.6796 240.304 71.6307C241.328 71.1421 242.158 70.8978 242.743 70.9467C243.084 70.9467 243.28 70.9955 243.426 70.7511C243.524 70.6045 243.475 70.458 243.426 70.3114C243.328 70.2137 243.182 70.1649 242.987 70.116Z" fill="#DA6249"/>
<path d="M166.692 114.387C166.692 114.387 160.497 120.593 160.253 125.235C160.009 129.877 167.473 160.515 168.497 156.752C169.229 154.114 168.936 139.845 179.229 143.07C185.376 144.976 186.693 146.54 186.693 146.54C186.693 146.54 173.131 120.348 174.156 116.195C175.18 112.041 166.692 114.387 166.692 114.387Z" fill="#2893D0"/>
<path d="M174.107 114.143C172.351 112.432 167.18 113.85 166.594 113.996C166.546 113.996 166.448 114.045 166.399 114.094C166.155 114.338 160.106 120.495 159.862 125.235C159.716 128.655 165.911 157.143 168.204 157.534C168.253 157.534 168.253 157.534 168.302 157.534C168.497 157.534 168.79 157.437 168.936 156.899C169.082 156.459 169.131 155.726 169.277 154.798C169.668 151.475 170.399 145.954 173.619 143.852C175.082 142.924 176.936 142.777 179.18 143.51C185.034 145.367 186.449 146.833 186.449 146.833C186.595 146.98 186.839 147.029 186.985 146.882C187.18 146.784 187.229 146.54 187.132 146.344C183.375 139.113 173.814 119.567 174.595 116.293C174.79 115.413 174.643 114.68 174.107 114.143ZM185.522 145.221C184.4 144.585 182.497 143.706 179.326 142.68C176.839 141.898 174.741 142.044 173.082 143.119C169.521 145.416 168.79 151.182 168.399 154.651C168.302 155.336 168.253 155.971 168.155 156.41C166.253 153.381 160.497 129.486 160.692 125.235C160.887 121.081 166.204 115.462 166.936 114.729C168.497 114.338 172.351 113.605 173.521 114.68C173.814 114.973 173.912 115.413 173.765 116.049C172.838 119.811 182.644 139.503 185.522 145.221Z" fill="#2893D0"/>
<path d="M172.449 49.153C167.571 74.4647 150.838 80.3285 147.814 81.2081C149.229 87.0229 158.253 120.935 179.327 121.13C185.425 121.179 190.254 120.153 194.157 118.589C206.109 110.282 205.767 86.1434 203.621 76.4193C200.157 74.7091 195.572 72.1192 190.889 68.4544C182.888 65.8646 172.449 49.153 172.449 49.153Z" fill="#F9C09D"/>
<path d="M203.816 76.0284C199.181 73.7318 194.937 71.0931 191.181 68.1124C191.132 68.0635 191.083 68.0635 191.035 68.0635C183.23 65.5714 172.937 49.1042 172.839 48.9576C172.741 48.811 172.595 48.7132 172.4 48.762C172.254 48.8109 172.107 48.9087 172.058 49.1042C167.278 74.0739 150.936 79.8887 147.716 80.8172C147.521 80.866 147.375 81.1103 147.424 81.3058C148.106 84.1399 150.741 94.206 155.814 103.49C162.351 115.413 170.253 121.472 179.327 121.521C179.473 121.521 179.62 121.521 179.717 121.521C185.181 121.521 190.108 120.642 194.401 118.883C206.108 110.771 206.45 87.1207 204.059 76.2727C204.011 76.175 203.913 76.0773 203.816 76.0284ZM194.01 118.15C189.815 119.86 184.791 120.739 179.327 120.642C170.595 120.593 162.936 114.631 156.546 103.05C151.716 94.2549 149.131 84.7263 148.302 81.4524C152.302 80.2308 167.717 73.9272 172.644 50.228C174.937 53.7462 183.571 66.451 190.644 68.7965C194.401 71.7283 198.596 74.4159 203.181 76.6637C205.572 87.4139 205.181 110.331 194.01 118.15Z" fill="#F9C09D"/>
<path d="M194.156 118.54C205.035 114.143 208.401 105.201 209.571 102.122C211.181 97.9686 212.108 82.8206 209.571 79.2046C209.718 79.058 207.279 78.1784 203.62 76.3704C205.766 86.0944 206.108 110.234 194.156 118.54Z" fill="#F9AE82"/>
<path d="M193.912 118.198C193.717 118.296 193.669 118.541 193.766 118.736C193.864 118.883 194.01 118.98 194.156 118.98C194.205 118.98 194.254 118.98 194.303 118.931C205.23 114.485 208.645 105.738 209.913 102.415L209.962 102.269C211.571 98.1151 212.596 83.0649 209.962 79.058C209.864 78.7648 209.62 78.6672 208.01 77.9342C206.937 77.4456 205.523 76.8103 203.766 75.9796C203.62 75.9308 203.425 75.9307 203.327 76.0284C203.181 76.1262 203.132 76.2728 203.181 76.4683C205.571 87.1207 205.279 110.282 193.912 118.198ZM204.205 77.1523C205.62 77.8364 206.791 78.374 207.718 78.7649C208.352 79.0581 208.986 79.3512 209.23 79.4489V79.4978C211.669 82.9672 210.693 98.164 209.181 102.024L209.132 102.171C208.01 105.054 205.181 112.335 196.839 116.879C205.864 107.546 206.254 87.4627 204.205 77.1523Z" fill="#F9AE82"/>
<path d="M147.619 80.3285C147.619 80.3285 147.667 80.6705 147.814 81.2081C150.887 80.3285 167.619 74.4647 172.449 49.1529C172.449 49.1529 182.839 65.8646 190.888 68.4544C183.473 62.5907 175.961 53.9906 172.644 41.5302C172.644 41.5302 172.644 73.634 147.619 80.3285Z" fill="#F9AE82"/>
<path d="M173.034 41.3836C172.985 41.1882 172.79 41.0415 172.595 41.0904C172.4 41.1393 172.205 41.2859 172.205 41.5303C172.205 41.8234 171.912 73.3898 147.472 79.9376C147.277 79.9865 147.131 80.2308 147.179 80.4263C147.179 80.4263 147.228 80.7684 147.375 81.3059C147.423 81.4036 147.472 81.5013 147.57 81.5502C147.618 81.5991 147.716 81.5991 147.765 81.5991C147.814 81.5991 147.862 81.5991 147.862 81.5991C151.131 80.6707 167.473 74.8558 172.595 50.2769C174.888 53.7952 183.571 66.5977 190.693 68.8454C190.888 68.8943 191.083 68.7966 191.181 68.65C191.278 68.4546 191.23 68.2591 191.083 68.1125C181.912 60.7828 175.863 51.8406 173.034 41.3836ZM148.106 80.6218C148.399 80.5241 148.692 80.4263 148.984 80.3286C148.692 80.4752 148.35 80.5729 148.106 80.6218ZM172.839 48.9087C172.741 48.7621 172.644 48.7133 172.497 48.7133C172.448 48.7133 172.448 48.7133 172.4 48.7133C172.692 46.8565 172.887 45.1951 172.985 43.9735C175.717 52.427 180.644 59.9032 187.766 66.2556C180.595 61.3203 172.936 49.0553 172.839 48.9087Z" fill="#F9AE82"/>
<path d="M179.961 70.7511C178.107 71.4352 176.497 71.3375 174.985 70.5068C170.985 68.259 169.521 61.2226 169.521 61.1737C169.424 60.734 168.985 60.4407 168.546 60.4896C168.107 60.5873 167.814 61.0271 167.863 61.4668C167.912 61.8089 169.473 69.2852 174.156 71.9239C175.229 72.5103 176.351 72.8523 177.57 72.8523C178.497 72.8523 179.522 72.6569 180.546 72.3149C180.985 72.1683 181.229 71.6795 181.034 71.2397C180.888 70.8 180.4 70.6045 179.961 70.7511Z" fill="#F9AE82"/>
<path d="M189.229 69.7248C186.254 70.5066 183.571 70.1645 181.18 68.6986C174.595 64.594 172.4 53.1597 172.351 53.062C172.253 52.6222 171.814 52.3291 171.375 52.3779C170.936 52.4757 170.644 52.9154 170.692 53.3552C170.79 53.8439 173.083 65.6202 180.254 70.1157C182.059 71.2396 184.059 71.826 186.156 71.826C187.278 71.826 188.449 71.6794 189.62 71.3374C190.059 71.2396 190.351 70.7509 190.205 70.3112C190.156 69.8714 189.669 69.5782 189.229 69.7248Z" fill="#F9AE82"/>
<path d="M172.497 39.9665C172.009 39.9665 171.668 40.3575 171.668 40.7973C171.668 41.628 171.668 61.4669 181.18 68.4057C183.327 69.9694 185.766 70.7511 188.449 70.7511C190.205 70.7511 192.059 70.409 194.059 69.7738C194.498 69.6272 194.742 69.1386 194.596 68.6988C194.449 68.259 193.961 68.0148 193.522 68.1614C189.034 69.6273 185.229 69.2852 182.156 67.0375C173.375 60.6362 173.375 40.9927 173.375 40.7973C173.327 40.3575 172.936 39.9665 172.497 39.9665Z" fill="#4461AB"/>
<path d="M183.424 68.259C180.888 69.9692 178.692 70.3602 176.887 69.4806C171.229 66.6953 170.253 52.5734 170.253 52.4268C170.204 51.9871 169.863 51.5962 169.375 51.6451C168.936 51.6939 168.546 52.0849 168.594 52.5247C168.643 53.1599 169.619 67.7215 176.156 70.9465C177.034 71.3863 177.961 71.5818 178.888 71.5818C180.595 71.5818 182.4 70.9466 184.351 69.6272C184.741 69.3829 184.839 68.8453 184.595 68.4544C184.302 68.1123 183.766 68.0147 183.424 68.259Z" fill="#4461AB"/>
<path d="M170.741 96.9914C170.204 98.0175 170.546 98.7016 170.789 99.0437C171.424 99.8743 172.887 100.119 174.302 100.119C175.619 100.119 176.887 99.9231 177.521 99.8254C177.96 99.7277 178.302 99.2879 178.204 98.8481C178.107 98.4083 177.668 98.0663 177.229 98.1641C174.692 98.6038 172.399 98.4573 172.155 98.0664C172.155 98.0664 172.155 97.9686 172.253 97.7731C172.497 97.3333 172.838 96.7959 173.229 96.2584C175.277 93.3265 178.351 88.9286 171.57 81.7456C171.277 81.4035 170.741 81.4036 170.399 81.6968C170.058 82.0388 170.058 82.5274 170.35 82.8695C176.204 89.0753 173.814 92.4958 171.863 95.2811C171.424 95.8675 170.985 96.4539 170.741 96.9914Z" fill="#62392C"/>
<path d="M160.691 75.7353C160.252 75.9308 160.057 76.4193 160.252 76.8591C160.399 77.2012 160.691 77.3967 161.033 77.3967C161.13 77.3967 161.277 77.3966 161.374 77.3478C162.35 76.9568 164.155 76.224 164.984 76.3217C165.472 76.2728 165.814 75.9797 165.862 75.491C165.862 75.0512 165.521 74.6603 165.033 74.6114C163.57 74.5137 160.984 75.6376 160.691 75.7353Z" fill="#62392C"/>
<path d="M184.302 72.5592C183.863 72.7057 183.619 73.1455 183.717 73.5852C183.814 73.9273 184.156 74.1716 184.497 74.1716C184.595 74.1716 184.644 74.1717 184.741 74.1228C185.717 73.8296 187.522 73.4386 188.302 73.5852C188.741 73.683 189.18 73.3898 189.278 72.95C189.375 72.5102 189.083 72.0704 188.644 71.9727C187.229 71.6795 184.595 72.4614 184.302 72.5592Z" fill="#62392C"/>
<path d="M188.985 79.5956C185.57 80.3286 183.668 84.8729 184.692 89.7105C185.716 94.5481 189.326 97.9198 192.741 97.1868C196.156 96.4538 198.058 91.9095 197.034 87.0719C196.01 82.2343 192.351 78.8626 188.985 79.5956Z" fill="white"/>
<path d="M188.888 79.2046C187.083 79.5956 185.619 80.9149 184.79 82.9672C183.961 84.9706 183.765 87.4138 184.302 89.8082C185.278 94.4015 188.497 97.7243 191.815 97.7243C192.156 97.7243 192.497 97.6754 192.839 97.6265C194.644 97.2356 196.107 95.9163 196.937 93.864C197.766 91.8605 197.961 89.4173 197.424 87.023C196.888 84.5797 195.766 82.4297 194.156 80.9638C192.546 79.449 190.644 78.8137 188.888 79.2046ZM196.156 93.5219C195.424 95.2811 194.156 96.4538 192.644 96.7958C189.473 97.4799 186.107 94.255 185.083 89.6617C184.595 87.4139 184.741 85.1173 185.522 83.3093C186.253 81.5502 187.522 80.3774 189.034 80.0353C189.327 79.9864 189.619 79.9376 189.912 79.9376C191.18 79.9376 192.449 80.524 193.571 81.5502C195.034 82.9184 196.107 84.8729 196.595 87.1696C197.083 89.4173 196.937 91.6651 196.156 93.5219Z" fill="white"/>
<path d="M161.131 82.0388C157.716 82.7718 155.814 87.3162 156.838 92.1538C157.862 96.9913 161.472 100.363 164.887 99.6301C168.302 98.8971 170.204 94.3527 169.18 89.5151C168.156 84.6776 164.546 81.3059 161.131 82.0388Z" fill="white"/>
<path d="M161.033 81.6478C159.228 82.0388 157.765 83.3581 156.935 85.4104C156.106 87.4138 155.911 89.8571 156.448 92.2514C156.984 94.6946 158.106 96.8447 159.716 98.3107C161.033 99.5323 162.497 100.168 163.96 100.168C164.302 100.168 164.643 100.119 164.984 100.07C166.789 99.6788 168.253 98.3595 169.082 96.3072C169.911 94.3037 170.107 91.8605 169.57 89.4662C169.033 87.0229 167.911 84.8729 166.302 83.407C164.692 81.8434 162.838 81.2569 161.033 81.6478ZM168.302 95.9652C167.57 97.7243 166.302 98.897 164.789 99.2391C163.277 99.5322 161.667 98.9948 160.253 97.6754C158.789 96.3072 157.716 94.3526 157.228 92.056C156.74 89.8082 156.887 87.5116 157.667 85.7036C158.399 83.9445 159.667 82.7718 161.179 82.4297C161.472 82.3809 161.765 82.332 162.058 82.332C163.326 82.332 164.594 82.9183 165.716 83.9445C167.18 85.3127 168.253 87.2672 168.741 89.5639C169.228 91.8605 169.082 94.1083 168.302 95.9652Z" fill="white"/>
<path d="M162.204 83.1626C160.058 83.9933 159.228 87.0229 160.302 89.857C161.424 92.74 164.058 94.4015 166.204 93.5708C168.351 92.7401 169.18 89.7104 168.107 86.8763C167.034 83.9933 164.399 82.3319 162.204 83.1626Z" fill="#191446"/>
<path d="M165.814 83.3094C164.594 82.5276 163.277 82.381 162.106 82.8208C160.936 83.2606 160.058 84.2867 159.667 85.7037C159.277 87.0719 159.375 88.6356 159.96 90.1015C160.545 91.5675 161.521 92.7891 162.692 93.571C163.472 94.0596 164.302 94.3039 165.082 94.3039C165.521 94.3039 165.96 94.2062 166.399 94.0596C168.741 93.1312 169.716 89.9061 168.546 86.7787C167.96 85.2639 166.985 84.0424 165.814 83.3094ZM166.106 93.2288C165.18 93.5709 164.155 93.4243 163.131 92.7891C162.106 92.1538 161.228 91.0789 160.74 89.7595C160.253 88.4402 160.155 87.0719 160.497 85.8992C160.838 84.7753 161.472 83.9446 162.399 83.6025C162.741 83.456 163.082 83.4071 163.423 83.4071C164.058 83.4071 164.741 83.6026 165.375 84.0424C166.399 84.6776 167.277 85.7526 167.765 87.072C168.741 89.7106 168.009 92.4959 166.106 93.2288Z" fill="#191446"/>
<path d="M189.961 79.9376C187.815 80.7683 186.985 83.7979 188.058 86.632C189.18 89.515 191.815 91.1765 193.961 90.3458C196.107 89.5151 196.937 86.4855 195.864 83.6514C194.79 80.8172 192.156 79.1069 189.961 79.9376Z" fill="#191446"/>
<path d="M189.814 79.5467C188.644 79.9865 187.814 81.0127 187.375 82.4298C186.985 83.798 187.083 85.3616 187.668 86.8276C188.253 88.2935 189.229 89.5151 190.4 90.2969C191.18 90.7855 192.01 91.0298 192.79 91.0298C193.229 91.0298 193.668 90.9321 194.107 90.7855C196.449 89.8571 197.424 86.6321 196.254 83.5048C195.083 80.3774 192.205 78.6183 189.814 79.5467ZM193.863 89.9549C192.936 90.2969 191.912 90.1504 190.888 89.5151C189.863 88.8799 188.985 87.8049 188.497 86.4856C188.009 85.1662 187.912 83.7979 188.253 82.6252C188.595 81.5013 189.229 80.6706 190.156 80.3286C190.497 80.182 190.839 80.1332 191.18 80.1332C192.888 80.1332 194.693 81.5991 195.522 83.798C196.498 86.4367 195.766 89.2219 193.863 89.9549Z" fill="#191446"/>
<path d="M178.204 109.354C177.765 109.256 177.326 109.549 177.229 109.989C177.131 110.429 177.424 110.869 177.863 110.966C178.79 111.162 180.253 111.699 180.644 112.237C180.79 112.481 181.083 112.579 181.326 112.579C181.473 112.579 181.668 112.53 181.814 112.432C182.205 112.188 182.302 111.651 182.009 111.26C181.131 110.038 178.692 109.452 178.204 109.354Z" fill="#91241E"/>
<path d="M158.399 90.248C158.399 91.2742 159.228 92.1049 160.253 92.1049C161.277 92.1049 162.106 91.2742 162.106 90.248C162.106 89.2219 161.277 88.3912 160.253 88.3912C159.228 88.3912 158.399 89.2219 158.399 90.248Z" fill="white"/>
<path d="M158.009 90.248C158.009 91.5185 159.033 92.5446 160.302 92.5446C161.57 92.5446 162.594 91.5185 162.594 90.248C162.594 88.9775 161.57 87.9514 160.302 87.9514C159.033 88.0003 158.009 88.9775 158.009 90.248ZM161.716 90.248C161.716 91.0299 161.082 91.665 160.302 91.665C159.521 91.665 158.887 91.0299 158.887 90.248C158.887 89.4662 159.521 88.8309 160.302 88.8309C161.082 88.8309 161.716 89.4662 161.716 90.248Z" fill="white"/>
<path d="M186.497 87.5116C186.497 88.5378 187.326 89.3685 188.351 89.3685C189.375 89.3685 190.204 88.5378 190.204 87.5116C190.204 86.4854 189.375 85.6547 188.351 85.6547C187.326 85.6547 186.497 86.4854 186.497 87.5116Z" fill="white"/>
<path d="M186.107 87.5116C186.107 88.782 187.131 89.8082 188.4 89.8082C189.668 89.8082 190.692 88.782 190.692 87.5116C190.692 86.2411 189.668 85.215 188.4 85.215C187.131 85.215 186.107 86.2411 186.107 87.5116ZM189.814 87.5116C189.814 88.2934 189.18 88.9775 188.351 88.9775C187.57 88.9775 186.887 88.3423 186.887 87.5116C186.887 86.7297 187.522 86.0456 188.351 86.0456C189.18 86.0456 189.814 86.6809 189.814 87.5116Z" fill="white"/>
<path d="M134.886 79.1558C138.789 78.8626 148.399 79.0092 147.813 74.025C147.228 69.0408 144.789 68.7476 144.789 68.7476C144.789 68.7476 144.837 68.5522 144.837 68.259C141.813 68.2101 137.52 68.6499 131.13 70.0669C119.178 72.7545 116.154 78.9115 116.154 78.9115C116.154 78.9115 118.349 73.1454 132.008 69.334C138.154 67.6237 142.154 66.9884 144.789 66.8418C144.447 64.4963 142.545 60.8804 134.008 62.0043C121.617 63.6168 116.495 68.0147 113.422 71.9238C110.3 75.833 106.007 79.3512 104.495 91.6162C103.031 103.881 98.9336 113.214 98.9336 113.214L117.178 124.306C117.178 124.306 136.349 111.309 129.081 95.8674C129.081 95.8674 137.374 93.1798 141.228 93.7173C145.081 94.2059 148.545 89.1241 142.984 86.6809C137.423 84.2376 123.373 85.8502 123.373 85.8502C123.373 85.8502 123.764 85.5082 124.398 85.0195C120.885 85.7036 116.837 86.8763 116.837 86.8763C120.934 85.166 123.812 84.3353 125.764 83.9444C128.349 82.0876 132.349 79.3512 134.886 79.1558Z" fill="#F9C09D"/>
<path d="M126.056 84.3843C129.959 81.4524 133.081 79.7421 134.935 79.5955C135.374 79.5467 135.862 79.5467 136.398 79.4978C140.008 79.3024 145.472 79.058 147.52 76.6148C148.155 75.8818 148.399 74.9534 148.301 73.9272C147.813 69.8226 146.106 68.6988 145.325 68.4056C145.325 68.3568 145.325 68.3079 145.325 68.259C145.325 68.1613 145.276 68.0146 145.228 67.9658C145.13 67.8681 145.033 67.8192 144.935 67.8192C142.789 67.7703 140.252 68.0146 137.325 68.4544C140.349 67.7703 142.886 67.3795 144.886 67.2817C144.984 67.2817 145.13 67.2328 145.179 67.1351C145.276 67.0374 145.276 66.9397 145.276 66.7931C144.935 64.3499 142.984 60.4407 134.008 61.6134C121.276 63.2748 116.154 67.868 113.129 71.7283C112.739 72.2658 112.3 72.7546 111.861 73.2921C108.983 76.6637 105.422 80.8661 104.153 91.6162C102.69 103.637 98.6896 113.019 98.6408 113.068C98.5433 113.263 98.6408 113.508 98.7872 113.605L117.032 124.697C117.08 124.746 117.178 124.746 117.227 124.746C117.324 124.746 117.373 124.697 117.471 124.697C117.666 124.551 136.496 111.553 129.715 96.2095C131.471 95.6719 138.008 93.7662 141.228 94.206C143.423 94.4992 145.667 93.0821 146.203 91.0787C146.74 89.173 145.618 87.4139 143.179 86.3389C138.593 84.3354 128.447 85.0195 124.739 85.3616C124.837 85.215 124.886 85.0683 124.788 84.9217C124.739 84.824 124.69 84.7752 124.593 84.7263C125.032 84.6286 125.471 84.5308 125.861 84.4331C125.91 84.4331 125.959 84.4331 126.056 84.3843ZM116.69 86.5832C116.495 86.6809 116.398 86.8763 116.446 87.1206C116.544 87.3161 116.739 87.4627 116.934 87.3649C116.983 87.3649 119.91 86.4855 122.983 85.8502C122.934 85.9479 122.983 86.0456 122.983 86.1433C123.081 86.2899 123.227 86.3877 123.422 86.3877C123.568 86.3877 137.423 84.824 142.789 87.1695C144.837 88.0491 145.764 89.4173 145.325 90.8833C144.935 92.3003 143.228 93.6685 141.228 93.3753C137.325 92.8867 129.227 95.4276 128.886 95.5742C128.788 95.6231 128.691 95.7208 128.642 95.8185C128.593 95.9162 128.593 96.0628 128.642 96.1605C135.276 110.185 119.178 122.401 117.129 123.916L99.4214 113.165C100.153 111.357 103.519 102.66 104.836 91.8117C106.104 81.3058 109.422 77.3966 112.349 73.9272C112.788 73.3897 113.227 72.9011 113.666 72.3636C116.593 68.6499 121.568 64.2032 134.008 62.5907C141.715 61.5645 143.764 64.4964 144.252 66.6465C141.179 66.8419 137.032 67.6727 131.861 69.1386C118.154 72.95 115.812 78.716 115.763 78.9603C115.666 79.1557 115.763 79.4001 116.007 79.4978C116.202 79.5956 116.446 79.4978 116.544 79.3023C116.593 79.2534 119.666 73.292 131.276 70.6533C136.544 69.4317 140.984 68.8454 144.398 68.8454C144.398 68.9431 144.398 69.0409 144.496 69.1386C144.545 69.2363 144.642 69.2851 144.789 69.2851C144.789 69.2851 146.886 69.6271 147.423 74.1715C147.52 74.9534 147.325 75.6376 146.837 76.2239C145.033 78.374 139.569 78.6183 136.349 78.7649C135.813 78.8137 135.325 78.8137 134.886 78.8626C132.349 79.058 128.495 81.599 125.666 83.749C123.129 84.1399 120.154 85.1173 116.69 86.5832Z" fill="#F9C09D"/>
<path d="M125.764 84.0423C123.813 84.4332 120.886 85.2639 116.837 86.9742C116.837 86.9742 120.886 85.8014 124.398 85.1173C124.788 84.8241 125.227 84.4332 125.764 84.0423Z" fill="#DA6249"/>
<path d="M125.715 83.6024C123.227 84.0911 120.203 85.0684 116.69 86.5343C116.495 86.632 116.398 86.8275 116.447 87.0718C116.495 87.2673 116.69 87.365 116.837 87.365C116.886 87.365 116.934 87.365 116.934 87.365C116.983 87.365 120.983 86.1923 124.447 85.5082C124.496 85.5082 124.593 85.4592 124.642 85.4104C125.032 85.1172 125.471 84.7263 126.008 84.3354C126.154 84.2377 126.203 83.9933 126.154 83.8467C126.105 83.7001 125.861 83.6024 125.715 83.6024Z" fill="#DA6249"/>
<path d="M116.154 78.9603C116.154 78.9603 119.178 72.8035 131.13 70.1159C137.52 68.65 141.813 68.259 144.838 68.3079C144.838 67.9658 144.886 67.4773 144.789 66.9398C142.106 67.0864 138.155 67.7215 132.008 69.4318C118.349 73.1943 116.154 78.9603 116.154 78.9603Z" fill="#DA6249"/>
<path d="M144.789 66.4999C141.716 66.6465 137.374 67.4772 131.91 68.992C118.203 72.8034 115.861 78.5694 115.812 78.8137C115.715 79.0092 115.812 79.2535 116.056 79.3513C116.105 79.4001 116.154 79.4002 116.203 79.4002C116.349 79.4002 116.495 79.3024 116.593 79.1558C116.642 79.107 119.715 73.1454 131.325 70.5067C136.837 69.2363 141.423 68.6499 144.935 68.6988C145.179 68.6988 145.325 68.5033 145.374 68.3078C145.423 67.8192 145.374 67.3305 145.325 66.8419C145.179 66.6464 144.984 66.4999 144.789 66.4999ZM144.447 67.8681C142.399 67.8681 140.008 68.0636 137.276 68.5034C140.106 67.8681 142.496 67.4772 144.447 67.3795C144.447 67.5261 144.447 67.7215 144.447 67.8681Z" fill="#DA6249"/>
<path d="M97.8116 182.064C85.5673 204.64 71.2254 257.755 87.7137 254.384C107.275 250.377 122.203 219.788 127.227 210.406C130.593 204.102 132.837 187.195 131.715 174.295C126.349 180.843 108.349 210.894 106.983 220.325C105.958 227.557 97.8604 200.486 97.8116 182.064Z" fill="#2893D0"/>
<path d="M131.862 173.855C131.715 173.806 131.52 173.855 131.422 174.002C125.764 180.891 108.007 210.699 106.641 220.227C106.544 220.814 106.446 221.009 106.446 221.058C104.544 220.325 98.3482 198.287 98.2995 182.064C98.2995 181.869 98.1531 181.722 98.0068 181.673C97.8116 181.624 97.6165 181.722 97.519 181.869C86.6893 201.805 75.0304 243.194 82.1526 252.82C83.2258 254.237 84.6405 254.97 86.3967 254.97C86.8845 254.97 87.3723 254.921 87.9089 254.823C106.348 251.061 120.544 224.185 126.593 212.702C126.983 211.92 127.374 211.236 127.715 210.601C131.179 204.102 133.374 186.804 132.252 174.246C132.105 174.05 132.008 173.904 131.862 173.855ZM126.886 210.21C126.544 210.845 126.203 211.53 125.764 212.311C119.764 223.697 105.714 250.279 87.6162 253.993C85.4698 254.432 83.86 253.895 82.738 252.331C76.2012 243.487 86.9332 203.956 97.4214 183.726C97.8604 197.066 103.129 221.693 106.348 221.938C107.178 221.987 107.373 220.765 107.422 220.374C108.69 211.481 125.276 183.432 131.374 175.37C132.301 187.684 130.203 204.004 126.886 210.21Z" fill="#2893D0"/>
<path d="M97.8115 182.064C97.8603 200.437 105.958 227.508 107.031 220.276C108.397 210.845 126.398 180.794 131.764 174.246C131.178 167.894 129.813 162.47 127.276 159.831C127.276 159.831 116.446 163.447 104.202 173.171C102.299 174.735 100.104 177.911 97.8115 182.064Z" fill="#4461AB"/>
<path d="M127.13 159.489C127.032 159.538 116.105 163.251 103.958 172.927C102.056 174.441 99.8605 177.471 97.4702 181.918C97.4214 181.966 97.4214 182.064 97.4214 182.113C97.4702 194.916 103.031 221.693 106.397 221.938H106.446C107.227 221.938 107.422 220.765 107.471 220.374C108.788 211.188 126.642 181.234 132.105 174.539C132.154 174.441 132.203 174.344 132.203 174.246C131.764 169.311 130.593 162.714 127.617 159.587C127.471 159.489 127.276 159.44 127.13 159.489ZM131.276 174.148C125.52 181.282 107.958 210.748 106.592 220.227C106.495 220.814 106.397 221.009 106.397 221.058C104.495 220.325 98.2995 198.385 98.2507 182.162C100.543 177.911 102.69 174.93 104.495 173.513C115.52 164.766 125.471 160.955 127.178 160.32C129.227 162.763 130.691 167.503 131.276 174.148Z" fill="#4461AB"/>
<path d="M249.378 130.659C240.012 135.008 230.45 162.763 241.524 186.951C252.597 211.139 287.623 254.09 297.867 242.51C308.111 230.978 267.037 135.35 267.037 135.35C267.037 135.35 258.744 126.31 249.378 130.659Z" fill="#2893D0"/>
<path d="M267.329 135.057C267.232 134.959 258.744 125.87 249.183 130.268C239.816 134.617 229.719 162.225 241.134 187.097C250.646 207.816 277.818 242.607 292.062 244.757C292.501 244.806 292.989 244.855 293.379 244.855C295.33 244.855 296.891 244.171 298.111 242.803C308.404 231.173 269.037 139.113 267.329 135.203C267.378 135.106 267.378 135.106 267.329 135.057ZM297.574 242.217C296.257 243.682 294.501 244.22 292.257 243.927C278.452 241.874 251.134 206.839 241.963 186.755C231.182 163.154 240.353 135.301 249.573 131.001C251.329 130.219 252.988 129.877 254.646 129.877C261.085 129.877 266.159 134.959 266.695 135.545C267.964 138.624 307.38 231.124 297.574 242.217Z" fill="#2893D0"/>
<path d="M255.866 144.536C252.988 150.449 257.037 168.529 257.085 175.663C257.085 180.892 281.867 224.625 285.574 217.98C289.33 211.285 263.964 137.5 263.964 137.5C263.964 137.5 258.744 138.624 255.866 144.536Z" fill="#4461AB"/>
<path d="M263.866 137.109C263.622 137.158 258.402 138.331 255.476 144.39C253.475 148.446 254.646 157.779 255.719 165.988C256.207 169.799 256.646 173.415 256.646 175.712C256.646 180.745 277.232 217.296 283.915 219.055C284.111 219.104 284.306 219.152 284.452 219.152C285.086 219.152 285.574 218.859 285.915 218.224C289.72 211.481 265.378 140.432 264.354 137.402C264.305 137.158 264.11 137.06 263.866 137.109ZM285.233 217.784C284.989 218.224 284.647 218.322 284.159 218.224C277.915 216.611 257.524 180.403 257.524 175.712C257.524 173.318 257.037 169.702 256.597 165.89C255.622 158.219 254.402 148.641 256.305 144.781C258.646 139.992 262.549 138.428 263.768 138.086C272.5 163.594 288.111 212.653 285.233 217.784Z" fill="#4461AB"/>
<path d="M243.377 135.839C243.475 135.887 253.963 142.24 257.817 152.892L260.988 151.768C256.744 139.992 245.573 133.249 245.134 132.956L243.377 135.839Z" fill="#504566"/>
<path d="M316.404 246.126C336.942 239.969 340.551 220.863 338.015 204.982C335.478 189.101 319.624 111.406 301.428 121.961C283.233 132.467 264.5 138.233 264.5 138.233C257.281 141.458 255.768 151.524 257.963 160.417C260.159 169.262 273.135 202.832 277.818 210.064C282.501 217.296 280.696 237.477 280.696 237.477C280.696 237.477 295.867 252.234 316.404 246.126Z" fill="#2893D0"/>
<path d="M280.452 237.77C280.598 237.916 291.135 248.031 306.453 248.031C309.623 248.031 312.989 247.592 316.55 246.517C341.82 238.991 339.722 212.751 338.454 204.933C335.966 189.15 323.429 128.655 308.014 121.326C305.721 120.251 303.477 120.348 301.233 121.619C283.281 131.978 264.598 137.793 264.402 137.891H264.354C256.695 141.36 255.475 152.061 257.573 160.564C259.768 169.311 272.793 203.076 277.476 210.357C282.013 217.393 280.305 237.33 280.305 237.525C280.305 237.525 280.354 237.672 280.452 237.77ZM278.208 209.819C273.525 202.587 260.549 169.017 258.402 160.32C256.353 152.159 257.475 141.898 264.695 138.673C265.476 138.428 283.964 132.613 301.672 122.352C303.623 121.228 305.623 121.13 307.672 122.108C314.063 125.137 320.892 138.624 327.478 161.004C333.088 180.012 336.697 199.265 337.624 205.079C338.844 212.751 340.893 238.405 316.307 245.735C297.282 251.403 282.793 238.747 281.183 237.33C281.33 235.033 282.696 216.758 278.208 209.819Z" fill="#2893D0"/>
<path d="M172.302 234.105C174.457 234.105 176.205 232.355 176.205 230.196C176.205 228.037 174.457 226.287 172.302 226.287C170.147 226.287 168.399 228.037 168.399 230.196C168.399 232.355 170.147 234.105 172.302 234.105Z" fill="#E46790"/>
<path d="M167.96 230.196C167.96 232.59 169.912 234.545 172.302 234.545C174.692 234.545 176.644 232.59 176.644 230.196C176.644 227.801 174.692 225.847 172.302 225.847C169.912 225.847 167.96 227.801 167.96 230.196ZM175.814 230.196C175.814 232.15 174.253 233.714 172.302 233.714C170.351 233.714 168.79 232.15 168.79 230.196C168.79 228.241 170.351 226.678 172.302 226.678C174.253 226.678 175.814 228.29 175.814 230.196Z" fill="#E46790"/>
<path d="M177.424 197.408C179.579 197.408 181.327 195.658 181.327 193.499C181.327 191.34 179.579 189.59 177.424 189.59C175.269 189.59 173.521 191.34 173.521 193.499C173.521 195.658 175.269 197.408 177.424 197.408Z" fill="#E46790"/>
<path d="M173.083 193.499C173.083 195.893 175.034 197.848 177.424 197.848C179.814 197.848 181.766 195.893 181.766 193.499C181.766 191.104 179.814 189.15 177.424 189.15C175.034 189.15 173.083 191.104 173.083 193.499ZM180.888 193.499C180.888 195.453 179.327 197.017 177.375 197.017C175.424 197.017 173.863 195.453 173.863 193.499C173.863 191.544 175.424 189.98 177.375 189.98C179.327 189.98 180.888 191.544 180.888 193.499Z" fill="#E46790"/>
<path d="M177.082 156.899C176.985 159.049 178.643 160.906 180.79 161.053C182.936 161.199 184.79 159.489 184.936 157.339C185.034 155.189 183.375 153.332 181.229 153.186C179.033 153.088 177.18 154.749 177.082 156.899Z" fill="#E46790"/>
<path d="M176.643 156.899C176.497 159.293 178.351 161.346 180.741 161.492C180.839 161.492 180.887 161.492 180.985 161.492C183.278 161.492 185.18 159.684 185.327 157.388C185.473 154.993 183.619 152.941 181.229 152.794C178.79 152.697 176.79 154.505 176.643 156.899ZM183.57 154.798C184.205 155.482 184.497 156.41 184.448 157.339C184.4 158.267 184.009 159.147 183.278 159.733C182.595 160.368 181.668 160.711 180.741 160.613C179.814 160.564 178.936 160.173 178.351 159.44C177.765 158.707 177.424 157.827 177.473 156.899C177.521 155.971 177.912 155.091 178.643 154.505C179.278 153.918 180.107 153.625 180.985 153.625C181.034 153.625 181.131 153.625 181.18 153.625C182.107 153.674 182.985 154.114 183.57 154.798Z" fill="#E46790"/>
<path d="M103.031 112.237C97.5677 110.087 96.4457 112.237 95.3725 115.511C94.2993 118.736 90.8846 124.551 87.6162 127.971L129.374 152.159C129.374 152.159 137.52 141.898 136.984 138.624C136.447 135.301 108.544 114.387 103.031 112.237Z" fill="#504566"/>
<path d="M103.227 111.846C100.739 110.869 98.9826 110.673 97.7143 111.309C96.2509 111.993 95.5679 113.605 94.9825 115.364C93.9581 118.492 90.6409 124.16 87.3237 127.678C87.2261 127.776 87.1774 127.923 87.2262 128.02C87.2262 128.167 87.3237 128.265 87.4213 128.313L129.179 152.501C129.228 152.55 129.325 152.55 129.374 152.55C129.52 152.55 129.618 152.501 129.715 152.404C130.545 151.329 137.959 141.898 137.374 138.526C136.789 134.812 108.349 113.898 103.227 111.846ZM129.276 151.573L88.2994 127.825C91.519 124.258 94.7386 118.736 95.763 115.609C96.2996 113.996 96.8362 112.579 98.007 112.042C99.0802 111.553 100.641 111.748 102.885 112.628C108.202 114.729 136.057 135.643 136.545 138.624C136.984 141.067 131.667 148.543 129.276 151.573Z" fill="#504566"/>
<path d="M101.324 129.095C92.2995 125.381 85.909 122.743 80.7869 129.095C59.0301 156.215 28.9316 207.132 32.8829 228.437C36.8343 249.742 69.2743 257.315 85.8602 254.775C102.446 252.234 106.056 232.053 107.178 218.713C108.349 205.373 134.496 162.079 133.569 155.58C132.593 149.032 110.349 132.809 101.324 129.095Z" fill="#2893D0"/>
<path d="M101.47 128.704L101.373 128.655C92.2994 124.942 85.7626 122.254 80.4454 128.851C57.8105 157.046 28.4925 207.376 32.4438 228.534C36.0049 247.787 62.1521 255.654 79.3234 255.654C81.7137 255.654 83.9577 255.508 85.909 255.214C98.5435 253.309 105.617 241.337 107.568 218.762C108.154 211.725 115.959 195.942 122.837 182.064C129.032 169.506 134.398 158.658 133.959 155.531C132.984 148.69 110.544 132.467 101.47 128.704ZM122.105 181.673C115.227 195.649 107.373 211.481 106.739 218.664C104.836 240.848 97.9581 252.527 85.7626 254.384C70.0548 256.778 37.2733 249.79 33.2731 228.388C31.0292 216.367 39.8099 196.088 47.5175 181.185C56.591 163.74 69.4206 143.901 81.0795 129.388C83.2259 126.701 85.5675 125.675 88.2993 125.675C91.8116 125.675 95.9093 127.385 100.983 129.437L101.08 129.486C110.739 133.444 132.154 149.521 133.032 155.58C133.52 158.512 127.959 169.75 122.105 181.673Z" fill="#2893D0"/>
<path d="M277.134 140.334C285.622 137.891 308.306 127.678 307.282 122.352C306.208 116.684 305.769 115.951 304.599 113.165C303.379 110.282 299.477 103.783 300.208 107.057C301.672 113.41 282.354 121.277 273.866 124.355C265.378 127.483 259.524 126.408 257.963 123.671C257.963 123.671 255.378 122.596 258.987 131.001C262.646 139.406 262.5 141.556 262.5 141.556C262.5 141.556 268.597 142.777 277.134 140.334Z" fill="#504566"/>
<path d="M262.451 141.995C262.597 142.044 264.11 142.337 266.646 142.337C269.232 142.337 272.939 142.044 277.232 140.774C281.378 139.601 289.135 136.474 295.964 132.809C301.623 129.779 308.306 125.479 307.721 122.254C306.794 117.172 306.306 116.048 305.379 113.85L304.989 112.97C304.94 112.872 301.623 105.738 300.208 105.738C300.16 105.738 300.111 105.738 300.111 105.738C299.525 105.933 299.721 106.715 299.818 107.155C301.282 113.41 280.208 121.619 273.72 123.965C265.573 126.945 259.817 125.968 258.353 123.476C258.305 123.378 258.256 123.329 258.158 123.28C257.914 123.183 257.426 123.134 257.036 123.476C256.5 124.013 256.109 125.382 258.646 131.148C262.158 139.21 262.11 141.507 262.11 141.507C262.11 141.751 262.256 141.947 262.451 141.995ZM257.622 124.111C257.67 124.062 257.67 124.062 257.719 124.062C259.427 126.701 265.183 127.971 274.012 124.746C284.549 120.886 301.916 113.507 300.647 107.057C301.574 108.279 303.379 111.309 304.208 113.263L304.599 114.143C305.526 116.293 305.965 117.368 306.891 122.401C307.282 124.453 303.135 127.971 295.574 132.027C288.793 135.643 281.086 138.721 276.988 139.894C269.768 141.947 264.256 141.36 262.89 141.165C262.793 140.236 262.256 137.402 259.378 130.806C256.987 125.235 257.475 124.258 257.622 124.111Z" fill="#504566"/>
<path d="M311.185 146.149C306.404 127.678 300.453 127.336 299.379 127.434L299.526 129.095V130.757C299.574 130.757 303.867 131.343 307.916 146.931L308.55 149.423C326.746 219.494 331.868 230.342 334.698 231.662L336.21 228.681C334.161 227.069 328.258 211.872 311.819 148.592L311.185 146.149Z" fill="#504566"/>
<path d="M113.666 170.239C130.349 147.224 120.739 136.767 120.349 136.327L117.91 138.673C118.007 138.77 125.861 147.761 110.983 168.285C95.4702 189.687 74.7866 237.477 78.6404 256.045L81.9575 255.361C80.299 247.445 83.5674 232.297 90.9335 213.826C97.2751 197.603 106.251 180.501 113.666 170.239Z" fill="#504566"/>
</g>
<defs>
<filter id="filter0_dd_3_14089" x="0.0830078" y="0.967529" width="371.038" height="313.967" filterUnits="userSpaceOnUse" color-interpolation-filters="sRGB">
<feFlood flood-opacity="0" result="BackgroundImageFix"/>
<feColorMatrix in="SourceAlpha" type="matrix" values="0 0 0 0 0 0 0 0 0 0 0 0 0 0 0 0 0 0 127 0" result="hardAlpha"/>
<feMorphology radius="8" operator="erode" in="SourceAlpha" result="effect1_dropShadow_3_14089"/>
<feOffset dy="20"/>
<feGaussianBlur stdDeviation="20"/>
<feColorMatrix type="matrix" values="0 0 0 0 0.0627451 0 0 0 0 0.0941176 0 0 0 0 0.156863 0 0 0 0.1 0"/>
<feBlend mode="normal" in2="BackgroundImageFix" result="effect1_dropShadow_3_14089"/>
<feColorMatrix in="SourceAlpha" type="matrix" values="0 0 0 0 0 0 0 0 0 0 0 0 0 0 0 0 0 0 127 0" result="hardAlpha"/>
<feMorphology radius="8" operator="erode" in="SourceAlpha" result="effect2_dropShadow_3_14089"/>
<feOffset dy="20"/>
<feGaussianBlur stdDeviation="20"/>
<feColorMatrix type="matrix" values="0 0 0 0 0.0627451 0 0 0 0 0.0941176 0 0 0 0 0.156863 0 0 0 0.05 0"/>
<feBlend mode="normal" in2="effect1_dropShadow_3_14089" result="effect2_dropShadow_3_14089"/>
<feBlend mode="normal" in="SourceGraphic" in2="effect2_dropShadow_3_14089" result="shape"/>
</filter>
</defs>
</svg>
